<svg version="1.1" xmlns="http://www.w3.org/2000/svg" viewBox="0 0 790.2503663506693 684.3587864622485" width="790.2503663506693" height="684.3587864622485">
  <!-- svg-source:excalidraw -->
  
  <defs>
    <style>
      @font-face {
        font-family: "Virgil";
        src: url("https://excalidraw.com/Virgil.woff2");
      }
      @font-face {
        font-family: "Cascadia";
        src: url("https://excalidraw.com/Cascadia.woff2");
      }
    </style>
  </defs>
  <g stroke-linecap="round"><g transform="translate(153.93520664197297 314.97594450159363) rotate(0 193.369438025048 37.33957375880021)"><path d="M1.09 -0.11 C65.25 12.5, 320.06 62.4, 384.23 74.87 M0.2 -1.22 C64.82 11.59, 322.25 63.12, 386.54 75.9" stroke="#087f5b" stroke-width="1" fill="none"></path></g><g transform="translate(153.93520664197297 314.97594450159363) rotate(0 193.369438025048 37.33957375880021)"><path d="M356.7 79.16 C362.31 80.96, 369.06 76.9, 388.41 76.92 M355.92 81.34 C367.96 78.72, 378.89 76.99, 386.02 76.18" stroke="#087f5b" stroke-width="1" fill="none"></path></g><g transform="translate(153.93520664197297 314.97594450159363) rotate(0 193.369438025048 37.33957375880021)"><path d="M360.71 59.04 C365.24 65.63, 371.04 66.32, 388.41 76.92 M359.93 61.22 C370.49 65.83, 379.99 71.3, 386.02 76.18" stroke="#087f5b" stroke-width="1" fill="none"></path></g></g><g stroke-linecap="round"><g transform="translate(143.1018733086396 329.14261116826026) rotate(0 139.4629955636912 32.25039707494744)"><path d="M-0.49 0.3 C45.78 11.09, 230.61 54.57, 277.27 65.09 M1.45 -0.59 C48.12 9.85, 233.12 52.63, 279.42 63.45" stroke="#087f5b" stroke-width="1" fill="none"></path></g><g transform="translate(143.1018733086396 329.14261116826026) rotate(0 139.4629955636912 32.25039707494744)"><path d="M250.14 65.29 C259.16 68.03, 264.33 66.38, 280.96 65.07 M250.25 67.86 C258.81 65.9, 265.73 65.3, 279.08 62.61" stroke="#087f5b" stroke-width="1" fill="none"></path></g><g transform="translate(143.1018733086396 329.14261116826026) rotate(0 139.4629955636912 32.25039707494744)"><path d="M254.78 45.3 C262.61 53.38, 266.54 57.1, 280.96 65.07 M254.89 47.87 C262.09 51.47, 267.72 56.43, 279.08 62.61" stroke="#087f5b" stroke-width="1" fill="none"></path></g></g><g stroke-linecap="round"><g transform="translate(118.91200696723752 334.0711120125502) rotate(0 88.96546069122849 29.26969295802212)"><path d="M-0.86 -0.9 C28.81 9, 148.79 49.54, 178.79 59.44 M0.89 1.23 C30.38 10.74, 148.42 47.73, 178.07 57.43" stroke="#087f5b" stroke-width="1" fill="none"></path></g><g transform="translate(118.91200696723752 334.0711120125502) rotate(0 88.96546069122849 29.26969295802212)"><path d="M146.58 59.34 C159.32 59.68, 168.64 57.23, 176.25 58.2 M148.03 57.96 C154.78 58.27, 161.1 58.9, 177.32 57.32" stroke="#087f5b" stroke-width="1" fill="none"></path></g><g transform="translate(118.91200696723752 334.0711120125502) rotate(0 88.96546069122849 29.26969295802212)"><path d="M152.83 39.8 C163.3 47.19, 170.36 51.84, 176.25 58.2 M154.27 38.41 C159.65 43.19, 164.55 48.3, 177.32 57.32" stroke="#087f5b" stroke-width="1" fill="none"></path></g></g><g stroke-linecap="round"><g transform="translate(33.03748354170682 189.55790480409166) rotate(0 50.74476190689944 47.77480143236858)" fill-rule="evenodd"><path d="M0.73 -1.13 L1.11 91.48 L-0.02 96.87 L6.16 99.85 L23.57 103.55 L51.84 108.66 L85.41 104.82 L92.38 101.29 L98.45 95.49 L100.03 90.84 L100.36 2.47 L94.24 -2.41 L71.45 -9.49 L48.92 -12.62 L17.26 -8.32 L0.97 -1.51" stroke="none" stroke-width="0" fill="#fa5252" fill-rule="evenodd"></path><path d="M-1.2 0.54 C-1.54 14.33, -1.57 65.97, -1.15 82.04 C-0.72 98.11, -1.1 93.89, 1.34 96.96 C3.77 100.02, 8.47 99.17, 13.47 100.43 C18.46 101.69, 24.96 103.43, 31.3 104.52 C37.64 105.6, 45.52 106.67, 51.52 106.96 C57.51 107.26, 61.76 107, 67.28 106.29 C72.79 105.57, 79.05 104.31, 84.61 102.66 C90.18 101.01, 98.03 100.07, 100.65 96.4 C103.26 92.72, 100.05 94.89, 100.31 80.63 C100.57 66.37, 102.08 24.35, 102.22 10.84 C102.35 -2.68, 103.48 2.55, 101.12 -0.45 C98.77 -3.44, 92.66 -5.36, 88.09 -7.13 C83.52 -8.9, 79.07 -10.45, 73.72 -11.08 C68.37 -11.72, 61.06 -10.94, 56 -10.93 C50.94 -10.92, 49.51 -11.4, 43.36 -11.04 C37.22 -10.68, 26.5 -10.76, 19.12 -8.75 C11.74 -6.75, 2.16 -0.47, -0.9 0.99 M0.37 -0.22 C0.3 13.29, 0.97 64.44, 0.96 80.33 C0.96 96.23, -1.74 91.69, 0.34 95.15 C2.42 98.6, 8 99.53, 13.45 101.06 C18.89 102.59, 26.43 103.5, 32.99 104.34 C39.55 105.17, 47.09 105.9, 52.82 106.06 C58.54 106.22, 62.17 105.94, 67.35 105.3 C72.54 104.65, 78.56 103.82, 83.93 102.2 C89.3 100.58, 96.73 99.28, 99.57 95.56 C102.4 91.83, 100.36 93.83, 100.93 79.85 C101.49 65.88, 103.07 25.16, 102.95 11.7 C102.83 -1.76, 102.61 1.8, 100.22 -0.92 C97.83 -3.65, 93.11 -3.43, 88.61 -4.65 C84.1 -5.87, 79.09 -7.1, 73.19 -8.24 C67.29 -9.38, 57.98 -11.22, 53.19 -11.5 C48.39 -11.77, 50.25 -10.45, 44.42 -9.87 C38.59 -9.29, 25.45 -9.38, 18.21 -8.04 C10.98 -6.69, 4.07 -3.16, 1 -1.78" stroke="#c92a2a" stroke-width="1" fill="none"></path></g></g><g stroke-linecap="round" transform="translate(32.664021264431426 177.23305077644716) rotate(0 50.626483401915095 13.765081576212367)"><path d="M55.14 0.25 C64.71 0.33, 77.47 0.96, 84.85 2.75 C92.23 4.53, 97.44 8.29, 99.42 10.95 C101.41 13.62, 100.5 16.21, 96.74 18.74 C92.98 21.27, 85.48 24.57, 76.85 26.13 C68.23 27.69, 54.81 28.61, 44.98 28.1 C35.14 27.59, 25.22 24.97, 17.86 23.07 C10.49 21.16, 2.96 19.04, 0.78 16.69 C-1.4 14.34, 0.61 11.3, 4.8 8.97 C8.99 6.64, 17.26 4.22, 25.9 2.72 C34.54 1.21, 51.21 0.2, 56.66 -0.06 C62.11 -0.32, 58.57 0.97, 58.6 1.16 M73.02 1.5 C82.18 2.35, 90.87 3.4, 95.76 5.94 C100.64 8.47, 103.49 13.81, 102.35 16.72 C101.21 19.64, 96.04 21.44, 88.91 23.41 C81.78 25.38, 69.4 27.96, 59.56 28.57 C49.71 29.17, 38.58 28.35, 29.84 27.06 C21.1 25.77, 12.02 23.36, 7.09 20.82 C2.15 18.29, -0.72 14.74, 0.22 11.85 C1.16 8.97, 5.91 5.24, 12.75 3.52 C19.59 1.8, 31.61 2.12, 41.26 1.51 C50.91 0.91, 65.5 -0.04, 70.66 -0.13 C75.81 -0.22, 72.48 0.5, 72.2 0.97" stroke="none" stroke-width="0" fill="#ffffff"></path><path d="M66.65 -0.01 C75.71 0.36, 85.55 2.59, 91.29 4.96 C97.02 7.32, 101.25 11.27, 101.07 14.21 C100.88 17.15, 96.02 20.52, 90.18 22.61 C84.33 24.69, 75.18 25.89, 66 26.73 C56.83 27.57, 44.62 28.58, 35.11 27.65 C25.6 26.72, 14.68 23.54, 8.94 21.15 C3.2 18.77, 0.32 15.97, 0.66 13.34 C1 10.72, 5.05 7.63, 10.98 5.41 C16.91 3.19, 26.56 0.95, 36.25 0.03 C45.93 -0.88, 63.3 -0.29, 69.09 -0.07 C74.88 0.15, 71.31 0.99, 70.97 1.35 M65.58 1.5 C74.85 2.3, 84.58 3.71, 90.38 5.79 C96.17 7.86, 100.2 11.57, 100.37 13.95 C100.53 16.33, 96.6 18.02, 91.35 20.06 C86.1 22.09, 77.88 24.89, 68.87 26.16 C59.87 27.44, 47.02 28.33, 37.34 27.7 C27.65 27.07, 16.72 24.43, 10.74 22.38 C4.77 20.33, 1.64 18.14, 1.51 15.4 C1.38 12.65, 4.52 8.47, 9.96 5.92 C15.41 3.36, 25.09 1.06, 34.17 0.05 C43.25 -0.97, 59.63 -0.2, 64.44 -0.19 C69.25 -0.19, 63.07 -0.23, 63.04 0.06" stroke="#c92a2a" stroke-width="1" fill="none"></path></g><g transform="translate(25.43159609885413 296.87142431927066) rotate(0 57.5 12.5)"><text x="57.5" y="18" font-family="Virgil, Segoe UI Emoji" font-size="20px" fill="#0b7285" text-anchor="middle" style="white-space: pre;" direction="ltr">Planetscale</text></g><g stroke-linecap="round" transform="translate(134.96173407557785 567.2938922919288) rotate(0 55.837686681004584 22.97627298835596)"><path d="M54.86 -0.87 L109.78 22.88 L56.56 44.32 L-1.97 21.63" stroke="none" stroke-width="0" fill="#c6302b" fill-rule="evenodd"></path><path d="M55.54 -1.41 C71.6 7.97, 85.75 12.07, 113.22 23.16 M56.71 0.81 C71.81 7.31, 86.53 13.71, 111.41 22.36 M112.92 21.88 C89.1 32.77, 68.44 39.35, 56.83 46.47 M111.33 22.14 C91.22 31.12, 71.57 39.88, 55.34 46.78 M57.7 45.06 C42.51 40.33, 28.68 33.8, -0.46 21.55 M55.05 45.2 C38.58 38.99, 23.94 31.4, 0.58 23.13 M-1.06 23.26 C20.81 16.37, 41.2 6.89, 55.75 -0.17 M-0.37 22.96 C19.3 15.99, 38.08 7.98, 55.79 -0.25" stroke="#000000" stroke-width="1" fill="none"></path></g><g stroke-linecap="round"><g transform="translate(134.50456497368384 590.4555485256335) rotate(0 55.68087442274424 15.21463299236234)" fill-rule="evenodd"><path d="M-0.69 -1.72 L-0.28 3.7 L4.11 6.46 L55.23 32.43 L103.79 10.36 L110.06 8.57 L110.64 1.31 L110.28 -0.96 L55.57 22.35 L-1.45 -0.11" stroke="none" stroke-width="0" fill="#912626" fill-rule="evenodd"></path><path d="M-0.84 0.25 C-0.65 0.87, 0.45 2.09, 0.91 3.47 C1.37 4.86, -1.92 6.32, 1.9 8.57 C5.72 10.82, 16.19 13.88, 23.83 16.96 C31.47 20.04, 42.11 24.58, 47.71 27.05 C53.31 29.51, 54.44 31.46, 57.41 31.75 C60.38 32.03, 60.3 30.89, 65.52 28.75 C70.75 26.61, 81.59 22.45, 88.74 18.91 C95.9 15.37, 104.52 9.8, 108.45 7.51 C112.37 5.23, 112.04 6.29, 112.28 5.2 C112.52 4.11, 111.86 1.23, 109.91 0.99 C107.96 0.75, 108.5 0.51, 100.59 3.77 C92.67 7.03, 70.86 17.69, 62.4 20.53 C53.95 23.37, 60.21 24.1, 49.86 20.81 C39.52 17.53, 8.46 4.13, 0.31 0.84 M0.91 -0.67 C1.06 0.15, 0.44 3.54, 0.44 4.77 C0.44 6, -3.04 4.52, 0.91 6.71 C4.85 8.9, 16.53 14.52, 24.13 17.91 C31.73 21.3, 41.25 24.84, 46.49 27.06 C51.74 29.28, 52.29 31.09, 55.61 31.21 C58.94 31.34, 61.1 29.85, 66.43 27.82 C71.76 25.79, 80.31 22.11, 87.62 19.03 C94.92 15.96, 106.54 11.69, 110.26 9.39 C113.98 7.09, 109.98 7.01, 109.94 5.23 C109.89 3.45, 111.23 -0.92, 109.99 -1.29 C108.75 -1.67, 110.32 -0.52, 102.48 2.97 C94.65 6.45, 71.93 16.62, 62.98 19.61 C54.03 22.6, 59.14 24.03, 48.78 20.88 C38.42 17.73, 9.12 4.34, 0.8 0.72" stroke="#000000" stroke-width="1" fill="none"></path></g></g><g stroke-linecap="round"><g transform="translate(134.26329874498106 572.8410767652222) rotate(0 55.05988943639568 14.914396555707128)" fill-rule="evenodd"><path d="M-0.1 -1.72 L1.61 4.25 L1 9.29 L55.22 30.83 L104.51 12.01 L109.79 6.45 L111.43 0.54 L109.1 -0.22 L55.41 22.69 L-0.46 -1.3" stroke="none" stroke-width="0" fill="#912626" fill-rule="evenodd"></path><path d="M0.91 -0.45 C0.98 0.31, -0.68 3.56, -0.43 4.85 C-0.18 6.15, -1.68 5.39, 2.42 7.34 C6.53 9.29, 16.61 12.99, 24.22 16.55 C31.83 20.12, 42.6 26.22, 48.08 28.73 C53.55 31.23, 54.27 31.55, 57.06 31.57 C59.85 31.59, 59.57 31.23, 64.83 28.85 C70.09 26.46, 81.12 20.52, 88.62 17.25 C96.11 13.98, 106.12 11.24, 109.82 9.21 C113.51 7.17, 110.79 6.64, 110.77 5.02 C110.75 3.41, 111.18 -0.36, 109.71 -0.48 C108.23 -0.6, 110.03 0.69, 101.92 4.3 C93.8 7.92, 69.52 18.41, 61.02 21.21 C52.52 24.02, 60.91 24.52, 50.9 21.16 C40.89 17.8, 9.52 4.75, 0.97 1.05 M-0.07 -1.74 C-0.12 -1.32, -1.9 1.51, -1.6 3.22 C-1.3 4.92, -2.68 6.15, 1.71 8.5 C6.1 10.84, 17.16 14.37, 24.72 17.28 C32.28 20.19, 41.99 23.69, 47.05 25.97 C52.11 28.24, 52.02 30.61, 55.08 30.94 C58.13 31.27, 59.98 30.37, 65.37 27.97 C70.76 25.56, 80.2 19.78, 87.42 16.51 C94.64 13.23, 104.71 10.23, 108.69 8.31 C112.67 6.38, 111.13 6.33, 111.29 4.96 C111.46 3.6, 111.42 0.32, 109.68 0.13 C107.94 -0.07, 108.99 0.36, 100.85 3.78 C92.72 7.2, 69.28 17.71, 60.87 20.65 C52.45 23.59, 60.2 24.67, 50.36 21.4 C40.51 18.14, 10.13 4.67, 1.8 1.05" stroke="#000000" stroke-width="1" fill="none"></path></g></g><g stroke-linecap="round" transform="translate(134.26710256662773 549.5807888136962) rotate(0 55.837686681004584 22.97627298835596)"><path d="M54.03 -1.37 L113.62 21.98 L54.5 44.85 L-0.16 24.89" stroke="none" stroke-width="0" fill="#c6302b" fill-rule="evenodd"></path><path d="M57.54 0.16 C76.33 9.66, 96.57 18.91, 113.29 23.84 M55.73 -0.64 C77.2 8.77, 96.3 17.04, 111.12 22.4 M112.5 23.52 C93.26 32.43, 73.84 38.28, 54.28 45.85 M111.01 23.83 C99.31 27.6, 87.76 33.34, 55.55 45.74 M55.54 44.5 C39.52 38.37, 21.81 30.16, -1.51 21.05 M56.58 46.08 C38.65 37.84, 19.51 30.54, 0.13 23.41 M-0.25 22.83 C20.52 15.41, 37.46 6.13, 55.92 -0.22 M-0.21 22.75 C19.02 14.34, 38.04 6.75, 56.28 -0.82" stroke="#000000" stroke-width="1" fill="none"></path></g><g stroke-linecap="round" transform="translate(133.55735508860562 531.3214012439113) rotate(0 55.837686681004584 22.97627298835596)"><path d="M57.94 -1.02 L110.18 21.9 L55.84 47.84 L-0.91 21.37" stroke="none" stroke-width="0" fill="#c6302b" fill-rule="evenodd"></path><path d="M55.5 0.81 C69.71 7.46, 87.23 12.95, 112.99 22.68 M56.87 0.77 C76.38 9.58, 97.03 16.96, 112.23 22.85 M113.07 24.61 C100.18 27.96, 83.36 34.05, 54.28 47.74 M111.01 23.02 C97.8 29.84, 84.24 34.31, 55.95 45.35 M55.89 45.49 C41.54 38.23, 28.13 32.77, 0.32 24.74 M56.55 45.47 C41.93 40.15, 29.88 35.73, 0.52 23.66 M0.95 23.43 C14.21 15.72, 31.99 9.67, 56.93 -1.58 M-0.57 22.56 C18.44 15.13, 39.02 6.44, 55.02 -0.68" stroke="#000000" stroke-width="1" fill="none"></path></g><g stroke-linecap="round"><g transform="translate(133.51564378007026 554.5166031689355) rotate(0 55.10920131190011 15.057286627663075)" fill-rule="evenodd"><path d="M-1.34 0.05 L-0.8 7.12 L1.43 7.21 L56.46 29.57 L103.85 9.85 L109.24 6.77 L111.07 0.44 L108.48 -1.27 L54.91 23.12 L1.74 -1.34" stroke="none" stroke-width="0" fill="#912626" fill-rule="evenodd"></path><path d="M0.49 -0.71 C0.61 0.15, 0.46 3.37, 0.85 4.9 C1.24 6.42, -0.95 6.22, 2.83 8.43 C6.61 10.64, 16.19 15.06, 23.54 18.15 C30.88 21.25, 41.22 24.73, 46.9 26.99 C52.58 29.25, 54.66 31.42, 57.6 31.7 C60.55 31.99, 59.44 31.11, 64.56 28.71 C69.67 26.31, 80.79 20.73, 88.27 17.3 C95.75 13.86, 105.73 10.18, 109.43 8.1 C113.14 6.01, 110.3 5.94, 110.51 4.77 C110.72 3.6, 112.07 0.95, 110.69 1.08 C109.31 1.21, 110.45 2.44, 102.22 5.54 C94 8.64, 69.95 17.4, 61.33 19.69 C52.72 21.98, 60.57 22.68, 50.53 19.28 C40.48 15.88, 9.63 2.34, 1.07 -0.71 M-0.71 1.53 C-0.68 2.1, -0.15 2.45, 0.35 3.28 C0.86 4.11, -1.56 4.37, 2.32 6.5 C6.21 8.63, 15.92 12.65, 23.68 16.06 C31.45 19.48, 43.55 24.46, 48.92 26.98 C54.29 29.49, 53.23 31.02, 55.91 31.15 C58.58 31.28, 59.18 30.18, 64.95 27.75 C70.73 25.33, 83.36 20.1, 90.55 16.58 C97.74 13.06, 104.72 8.62, 108.11 6.62 C111.5 4.61, 110.39 5.87, 110.9 4.58 C111.41 3.28, 112.77 -1.34, 111.17 -1.16 C109.58 -0.97, 109.62 1.81, 101.32 5.67 C93.01 9.53, 69.93 19.84, 61.34 21.98 C52.76 24.13, 60.3 22.49, 49.79 18.55 C39.29 14.61, 6.63 1.6, -1.7 -1.64" stroke="#000000" stroke-width="1" fill="none"></path></g></g><g stroke-linecap="round" transform="translate(153.5417414818205 548.7560069499798) rotate(0 12.053899714137515 5.311888009619906)"><path d="M15.04 0.09 C17.42 0.37, 21.05 1.6, 22.4 2.48 C23.75 3.36, 23.45 4.32, 23.14 5.4 C22.84 6.48, 22.14 8.22, 20.55 8.96 C18.95 9.69, 16.07 9.73, 13.58 9.81 C11.09 9.9, 7.84 10.07, 5.6 9.46 C3.37 8.84, 0.98 7.34, 0.16 6.12 C-0.66 4.9, -0.43 3.01, 0.69 2.12 C1.81 1.23, 4.25 1.21, 6.89 0.78 C9.53 0.35, 14.58 -0.67, 16.51 -0.45 C18.44 -0.22, 18.51 2, 18.47 2.12 M8.1 -1.02 C10.63 -1.55, 15.73 0.05, 18.17 0.88 C20.61 1.72, 21.73 2.9, 22.76 3.98 C23.79 5.06, 24.83 6.63, 24.35 7.38 C23.88 8.14, 21.89 7.73, 19.92 8.51 C17.94 9.28, 15.24 12, 12.5 12.02 C9.77 12.05, 5.71 9.9, 3.52 8.66 C1.33 7.42, -0.57 5.65, -0.64 4.58 C-0.71 3.51, 1.32 3.2, 3.1 2.22 C4.88 1.25, 9.17 -0.76, 10.05 -1.28 C10.93 -1.79, 8.4 -1.35, 8.39 -0.85" stroke="none" stroke-width="0" fill="#ffff"></path><path d="M15.3 -0.15 C17.51 0.18, 19.31 2.04, 20.91 2.91 C22.51 3.79, 24.75 4.21, 24.87 5.11 C24.99 6.01, 23.59 7.3, 21.64 8.31 C19.68 9.31, 15.82 10.97, 13.13 11.12 C10.45 11.28, 7.53 9.87, 5.51 9.21 C3.49 8.56, 1.66 8.06, 1 7.21 C0.35 6.36, 0.53 5.28, 1.58 4.13 C2.62 2.97, 4.7 0.87, 7.27 0.28 C9.84 -0.31, 14.93 0.22, 16.98 0.6 C19.04 0.98, 19.65 2.57, 19.6 2.55 M16.42 1.72 C18.79 2.03, 20.97 1.97, 22.18 2.63 C23.4 3.29, 24.35 4.56, 23.69 5.66 C23.03 6.76, 20.48 8.44, 18.24 9.25 C15.99 10.06, 12.67 10.71, 10.2 10.53 C7.72 10.35, 5.31 9.14, 3.39 8.18 C1.46 7.22, -0.88 5.69, -1.35 4.77 C-1.82 3.84, -1.33 3.54, 0.56 2.61 C2.44 1.68, 7.1 -0.46, 9.96 -0.79 C12.83 -1.12, 16.49 0.54, 17.76 0.64 C19.04 0.75, 18.07 -0.09, 17.62 -0.18" stroke="#000000" stroke-width="1" fill="none"></path></g><g stroke-linecap="round"><g transform="translate(176.11993867112164 564.9589895997285) rotate(0 10.202907139615945 0.5849850483510863)" fill-rule="evenodd"><path d="M-0.91 -1.63 L17.03 5.72 L20.65 -3.34 L0.82 1.02" stroke="none" stroke-width="0" fill="#ffff" fill-rule="evenodd"></path><path d="M1.07 -0.26 C6.99 1.41, 10.49 5.2, 16.73 4.54 M0.45 -0.13 C5.09 2.3, 11.4 4.41, 16.13 5.89 M14.51 6.17 C16.33 1.83, 19.34 -0.79, 20.87 -4.98 M15.45 4.83 C17.23 1.28, 19.25 -2.4, 20.71 -5 M21.17 -2.9 C15.2 -2.73, 12.53 -1.84, -0.96 -1.77 M21.36 -3.97 C15.56 -3.53, 10.47 -1.79, 0.22 -0.92 M0 0 C0 0, 0 0, 0 0 M0 0 C0 0, 0 0, 0 0" stroke="#000000" stroke-width="1" fill="none"></path></g></g><g stroke-linecap="round"><g transform="translate(183.47218738217953 538.3365343157254) rotate(0 6.22804056968522 5.829465112165735)" fill-rule="evenodd"><path d="M-0.28 -0.74 L3.73 5.71 L-3.81 9.3 L3.63 6.32 L6.29 11.92 L8.53 6.74 L16.31 7.22 L8.88 2.19 L11.46 -2.03 L7.32 2.2 L-1.47 -0.41" stroke="none" stroke-width="0" fill="#ffff" fill-rule="evenodd"></path><path d="M0.34 -0.13 C0.39 1.86, 1.7 2.72, 2.21 3.98 M-0.14 0.1 C0.54 1.18, 1.13 2.24, 1.84 4.04 M1.54 3.81 C0.77 4.83, -1.41 6.04, -3.15 7.26 M1.71 4.16 C0.12 5.11, -1.29 5.84, -4.02 7.3 M-4.17 7.95 C-2.23 8, -1.26 7.15, 2.78 8.29 M-3.76 7.51 C-1.4 7.89, 1.04 7.63, 3.02 8.19 M3.41 8.08 C4.13 9.19, 5.13 10.27, 6.95 12.85 M3.43 8.05 C3.72 9.05, 4.76 10.47, 6.85 12.45 M7.34 12.91 C7.62 10.99, 7.33 9.18, 8.49 7.37 M7.17 12.67 C7.51 11.01, 7.47 9.65, 8.14 7.59 M8.44 6.7 C10.95 7.34, 12.61 7.08, 15.76 6.13 M7.59 7.36 C10.92 6.6, 12.89 6.81, 16.54 6.56 M16.61 6.4 C13.45 4.84, 11.93 4.73, 9.48 4.23 M16.62 6.26 C14.83 5.84, 12.48 5.26, 9.28 3.82 M9.39 3.76 C10 2.7, 10.5 0.99, 11.24 -0.7 M9.2 4.15 C9.75 2.82, 10.15 1.34, 11.44 -1.25 M11.74 -0.41 C10.05 -0.66, 9.01 -0.04, 5.9 1.52 M11.72 -0.71 C9.23 0.08, 7.13 1.02, 5.31 2.05 M5.54 1.76 C3.86 1.33, 1.79 0.35, 0.52 0.1 M5.25 1.56 C4.34 1.41, 2.74 0.76, 0.07 -0.01 M0 0 C0 0, 0 0, 0 0 M0 0 C0 0, 0 0, 0 0" stroke="#000000" stroke-width="1" fill="none"></path></g></g><g stroke-linecap="round"><g transform="translate(215.60420778778007 548.3552660331075) rotate(0 0.3368943921810228 4.89215886879748)" fill-rule="evenodd"><path d="M0.33 0.49 L13.55 4.13 L-2.05 12.16 L-12.72 5.92 L0.67 -1.02 L1.89 1.98" stroke="none" stroke-width="0" fill="#912626" fill-rule="evenodd"></path><path d="M-0.9 1.22 C4.81 0.97, 8.31 2.21, 12.18 5.98 M0.18 0.49 C4.24 2.04, 7.14 2.31, 12.99 4.61 M14.22 4.24 C7.75 6.7, 3.68 8.53, -0.83 10.34 M12.5 5.17 C9.58 5.96, 5.81 7.13, -1.23 10.54 M-0.34 11.16 C-5.97 7.28, -10.88 6.64, -12.47 5.92 M-0.58 10.74 C-4.94 7.87, -9.92 6.56, -13.1 5.52 M-13.38 4.41 C-10.78 2.76, -7.38 3.33, -1.14 -1.38 M-13.55 4.82 C-10.11 4.73, -7.36 2.29, 0.55 0.19 M0 0 C0 0, 0 0, 0 0 M0 0 C0 0, 0 0, 0 0 M0 0 C0 0, 0 0, 0 0 M0 0 C0 0, 0 0, 0 0" stroke="#000000" stroke-width="1" fill="none"></path></g></g><g stroke-linecap="round"><g transform="translate(214.0000178673555 548.1492309837909) rotate(0 0.3582113196738419 4.853625794622928)"><path d="M0.8 -0.4 C0.66 2.26, -0.55 6.26, 0.11 9.79 M0.42 0.46 C-0.06 3.11, 0.18 6.66, 0.73 10.11" stroke="#000000" stroke-width="1" fill="none"></path></g></g><g stroke-linecap="round" transform="translate(553.2490626483725 574.4413805096174) rotate(0 55.837686681004584 22.97627298835596)"><path d="M57.09 -1.49 L113.46 24.88 L55.83 45.34 L-0.94 21.31" stroke="none" stroke-width="0" fill="#c6302b" fill-rule="evenodd"></path><path d="M57.25 -1.12 C76.53 10.22, 98.97 16.82, 112.5 23.52 M55.66 -0.86 C76.73 7.16, 98.26 15.94, 111.01 23.83 M113.37 22.1 C98.27 28.07, 84.52 32.24, 55.54 44.5 M110.73 22.24 C94.25 29.56, 79.7 35.49, 56.58 46.08 M54.94 46.21 C37.05 38.35, 17.67 28.88, -0.25 22.83 M55.63 45.91 C36.38 37.93, 16.24 29.94, -0.21 22.75 M-0.12 23.56 C12.08 15.97, 25.96 14.29, 54.98 -1.5 M-0.45 22.18 C14.51 17.11, 27.36 11.85, 56.41 0.51" stroke="#000000" stroke-width="1" fill="none"></path></g><g stroke-linecap="round"><g transform="translate(552.7968753292919 597.749998373431) rotate(0 55.24117002704861 15.514919724374067)" fill-rule="evenodd"><path d="M-1.9 -1.51 L-2.13 5.75 L4.06 6.3 L57.72 31.04 L106.23 9.35 L108.92 5.82 L111.79 2.56 L111.42 1.56 L56.58 22.56 L-0.17 0.95" stroke="none" stroke-width="0" fill="#912626" fill-rule="evenodd"></path><path d="M-0.67 -0.72 C-0.48 -0.22, 0.28 2.27, 0.66 3.74 C1.04 5.22, -2.3 5.74, 1.6 8.14 C5.5 10.53, 16.28 14.66, 24.04 18.1 C31.81 21.55, 42.84 26.87, 48.19 28.81 C53.54 30.75, 53.35 30.06, 56.15 29.75 C58.94 29.43, 59.32 29, 64.96 26.93 C70.61 24.85, 82.84 20.25, 90.01 17.31 C97.18 14.37, 104.57 11.44, 107.97 9.27 C111.38 7.1, 110.09 5.64, 110.43 4.3 C110.77 2.97, 111.63 1.27, 110.01 1.26 C108.39 1.25, 108.77 1.11, 100.72 4.23 C92.66 7.35, 70.16 17.36, 61.68 20 C53.2 22.63, 60.24 23.39, 49.82 20.04 C39.39 16.7, 7.48 3.41, -0.87 -0.07 M1.18 1.52 C1.31 2.14, -0.43 4.42, 0.06 5.18 C0.55 5.94, 0.05 4.25, 4.12 6.05 C8.18 7.86, 17.27 12.65, 24.45 15.99 C31.64 19.33, 41.74 23.45, 47.22 26.09 C52.71 28.73, 54.29 31.39, 57.34 31.83 C60.4 32.26, 60.21 31.23, 65.57 28.7 C70.94 26.16, 82.22 19.98, 89.55 16.6 C96.88 13.22, 106.01 10.53, 109.54 8.41 C113.08 6.29, 110.68 5.41, 110.78 3.87 C110.88 2.32, 111.48 -0.85, 110.13 -0.88 C108.78 -0.91, 110.73 -0.22, 102.68 3.67 C94.64 7.56, 70.26 19.78, 61.88 22.45 C53.49 25.12, 62.85 23.56, 52.37 19.71 C41.89 15.86, 7.63 2.62, -1 -0.66" stroke="#000000" stroke-width="1" fill="none"></path></g></g><g stroke-linecap="round"><g transform="translate(552.5317523030083 580.3711266263695) rotate(0 55.507337995849184 15.084302257884303)" fill-rule="evenodd"><path d="M-1.95 0.32 L1.56 4.09 L3.49 7.91 L57.66 29.82 L103.36 9.25 L110.94 7.7 L112.58 3.06 L110.1 -0.01 L56.69 23.75 L0.43 -1.84" stroke="none" stroke-width="0" fill="#912626" fill-rule="evenodd"></path><path d="M0.66 -0.19 C0.65 0.67, -1.05 2.98, -0.72 4.42 C-0.39 5.87, -1.6 6.16, 2.63 8.48 C6.87 10.8, 17.33 15.28, 24.7 18.32 C32.06 21.36, 41.51 24.82, 46.81 26.73 C52.11 28.63, 53.29 29.66, 56.5 29.74 C59.71 29.83, 60.82 29.04, 66.09 27.25 C71.37 25.46, 81.17 22.17, 88.14 19.01 C95.12 15.85, 104.18 10.6, 107.97 8.31 C111.75 6.02, 110.55 6.68, 110.86 5.29 C111.17 3.9, 111.45 0.24, 109.84 -0.02 C108.23 -0.27, 109.34 0.35, 101.19 3.77 C93.05 7.18, 69.55 17.7, 60.97 20.44 C52.39 23.19, 59.93 23.79, 49.72 20.25 C39.51 16.71, 8.2 2.75, -0.28 -0.78 M-0.45 -1.33 C-0.01 -0.77, 1.2 1.24, 1.61 2.56 C2.02 3.88, -1.94 4.28, 2.03 6.58 C6.01 8.87, 17.66 12.98, 25.45 16.31 C33.24 19.65, 43.38 23.99, 48.78 26.58 C54.19 29.16, 55.4 31.38, 57.88 31.82 C60.36 32.26, 58.23 31.3, 63.64 29.19 C69.05 27.09, 82.71 22.9, 90.36 19.19 C98.01 15.48, 106.02 9.25, 109.53 6.94 C113.05 4.64, 111.38 6.39, 111.43 5.37 C111.49 4.36, 111.83 1.23, 109.88 0.83 C107.93 0.43, 107.93 -0.15, 99.75 2.96 C91.57 6.07, 68.72 16.63, 60.8 19.48 C52.88 22.32, 62.37 23.56, 52.22 20.03 C42.07 16.49, 8.73 1.61, -0.09 -1.75" stroke="#000000" stroke-width="1" fill="none"></path></g></g><g stroke-linecap="round" transform="translate(552.5544311394208 556.7282770313839) rotate(0 55.837686681004584 22.97627298835596)"><path d="M55.06 -1.69 L113.02 22.87 L57.69 43.99 L-0.6 21.46" stroke="none" stroke-width="0" fill="#c6302b" fill-rule="evenodd"></path><path d="M56.83 0.52 C77.14 10.11, 97.27 15.99, 109.96 22.9 M55.34 0.83 C67.44 5.27, 79.71 11.01, 111.23 22.78 M111.22 21.55 C95.01 28.95, 77.4 34.28, 54.49 44 M112.26 23.13 C94.83 29.4, 75.79 36.61, 56.13 46.36 M55.75 45.78 C37.08 38.23, 14.57 28.96, -0.08 22.78 M55.79 45.7 C36.21 37.82, 16.43 30.24, 0.28 22.18 M-1.02 21.5 C10.35 17.66, 24.62 12.28, 54.37 1.56 M0.41 23.51 C18.91 14.36, 37.61 8.51, 55.92 -0.31" stroke="#000000" stroke-width="1" fill="none"></path></g><g stroke-linecap="round" transform="translate(551.8446836614 538.4688894615987) rotate(0 55.837686681004584 22.97627298835596)"><path d="M57.35 -0.13 L113.37 21.03 L55.4 44.41 L1.15 24.33" stroke="none" stroke-width="0" fill="#c6302b" fill-rule="evenodd"></path><path d="M57.4 1.61 C71.2 4.68, 81.07 10.78, 109.95 24.79 M55.33 0.02 C68.95 5.93, 82.23 10.41, 111.62 22.4 M111.57 22.54 C97.19 26.11, 83.85 31.47, 56.32 47.69 M112.23 22.52 C97.94 27.89, 85.98 34.19, 56.52 46.61 M56.95 46.39 C38.17 38.59, 23.91 32.55, 0.93 21.42 M55.43 45.52 C35.76 37.82, 17.64 29.14, -0.98 22.32 M-1.1 22.84 C24.24 13.38, 42.95 6.71, 56.55 -0.19 M0.55 22.26 C21.24 15.26, 40.7 5.62, 55.53 -0.84" stroke="#000000" stroke-width="1" fill="none"></path></g><g stroke-linecap="round"><g transform="translate(551.5837942143291 561.9861268440891) rotate(0 54.605844277740175 14.529165492973448)" fill-rule="evenodd"><path d="M1.1 -0.96 L-1.95 4.37 L2.58 8.46 L57.6 32.1 L104.85 10.06 L110.51 7.83 L111.97 -0.1 L109.63 0.16 L56.64 23.73 L-1.58 0.91" stroke="none" stroke-width="0" fill="#912626" fill-rule="evenodd"></path><path d="M0.97 1.05 C0.85 1.4, -0.63 1.97, -0.41 2.9 C-0.19 3.82, -1.94 4.33, 2.26 6.61 C6.47 8.88, 17.44 12.87, 24.8 16.56 C32.16 20.25, 41.27 26.37, 46.43 28.75 C51.58 31.12, 52.72 30.77, 55.76 30.81 C58.79 30.84, 59.21 31.15, 64.65 28.98 C70.09 26.8, 81.06 21.33, 88.4 17.76 C95.75 14.19, 105.03 9.85, 108.71 7.56 C112.39 5.27, 110.33 5.23, 110.46 4 C110.6 2.77, 111.09 0.22, 109.51 0.17 C107.93 0.13, 109.13 0.43, 100.98 3.71 C92.83 6.98, 69.2 17.01, 60.6 19.81 C52.01 22.61, 59.34 23.95, 49.42 20.51 C39.49 17.08, 9.16 2.59, 1.04 -0.8 M0.01 0.56 C-0.33 0.94, -1.82 2.76, -1.58 3.89 C-1.33 5.03, -2.45 5.15, 1.47 7.38 C5.39 9.61, 14.16 14.19, 21.95 17.29 C29.74 20.39, 42.4 23.92, 48.2 26 C54 28.08, 53.93 29.42, 56.75 29.78 C59.56 30.14, 59.43 30.25, 65.1 28.17 C70.76 26.08, 83.77 20.4, 90.75 17.28 C97.74 14.17, 103.66 11.77, 107 9.46 C110.35 7.14, 110.43 4.79, 110.83 3.4 C111.22 2.02, 110.67 1.21, 109.37 1.13 C108.08 1.04, 111.27 -0.63, 103.08 2.87 C94.89 6.38, 68.79 19.25, 60.23 22.17 C51.68 25.1, 62.09 24.41, 51.76 20.42 C41.43 16.43, 7.15 1.37, -1.74 -1.78" stroke="#000000" stroke-width="1" fill="none"></path></g></g><g stroke-linecap="round" transform="translate(571.829070054614 555.9034951676683) rotate(0 12.053899714137515 5.311888009619906)"><path d="M5.85 -0.12 C7.96 -0.86, 11.2 -0.25, 13.97 0.03 C16.74 0.31, 20.92 0.54, 22.47 1.57 C24.02 2.61, 23.48 5.06, 23.29 6.26 C23.09 7.46, 22.79 7.97, 21.31 8.76 C19.84 9.54, 16.94 10.71, 14.42 10.98 C11.9 11.25, 8.64 10.89, 6.21 10.37 C3.78 9.85, 0.59 9.05, -0.14 7.86 C-0.88 6.68, 0.67 4.56, 1.8 3.25 C2.94 1.95, 5.83 0.38, 6.67 0.03 C7.51 -0.32, 6.72 0.85, 6.85 1.15 M7.23 1.63 C9.41 1.28, 12.35 0.09, 14.66 0.29 C16.96 0.49, 19.68 1.85, 21.04 2.82 C22.41 3.79, 22.76 5.27, 22.84 6.1 C22.92 6.94, 22.92 7.28, 21.52 7.82 C20.12 8.37, 17.1 9.06, 14.44 9.39 C11.79 9.73, 7.95 10.01, 5.57 9.83 C3.19 9.65, 1.19 9.43, 0.17 8.31 C-0.84 7.2, -1.81 4.65, -0.54 3.15 C0.72 1.65, 6.68 -0.4, 7.75 -0.69 C8.82 -0.97, 5.94 0.93, 5.88 1.43" stroke="none" stroke-width="0" fill="#ffff"></path><path d="M11.16 -0.66 C13.89 -1.02, 18.27 -0.28, 20.39 0.49 C22.52 1.26, 23.38 2.8, 23.89 3.95 C24.41 5.1, 24.76 6.36, 23.49 7.4 C22.21 8.45, 18.89 9.82, 16.24 10.2 C13.6 10.59, 10.06 10.18, 7.61 9.71 C5.16 9.23, 2.8 8.26, 1.54 7.36 C0.29 6.46, -0.23 5.45, 0.08 4.29 C0.39 3.13, 1.51 1.26, 3.43 0.38 C5.34 -0.5, 9.96 -1.08, 11.57 -0.97 C13.17 -0.87, 13.02 0.64, 13.03 0.99 M11.52 -0.78 C13.88 -0.56, 18.37 1.01, 20.59 2.09 C22.81 3.18, 24.61 4.73, 24.82 5.73 C25.03 6.73, 23.45 7.18, 21.86 8.08 C20.27 8.98, 17.68 11.01, 15.29 11.13 C12.9 11.24, 9.95 9.38, 7.52 8.79 C5.08 8.21, 1.9 8.28, 0.68 7.6 C-0.54 6.93, -0.33 5.73, 0.18 4.74 C0.7 3.76, 1.69 2.56, 3.75 1.71 C5.81 0.86, 11.17 0.01, 12.54 -0.36 C13.91 -0.74, 12.18 -0.67, 11.98 -0.54" stroke="#000000" stroke-width="1" fill="none"></path></g><g stroke-linecap="round"><g transform="translate(594.1813617998841 572.1663927099817) rotate(0 10.18342848027271 -0.037964364108916016)" fill-rule="evenodd"><path d="M1.15 1.33 L15.65 5.41 L20.19 -3.58 L-1.68 0.83" stroke="none" stroke-width="0" fill="#ffff" fill-rule="evenodd"></path><path d="M-1.41 1.46 C3.11 0.3, 9.53 1.66, 15.52 4.66 M-0.04 -0.49 C5.41 1.84, 11.3 3.97, 15.29 4.64 M15.66 6.14 C15.9 3.86, 17.9 1.82, 20.31 -5.62 M15.77 5.54 C16.71 2.66, 18.07 0.57, 20.96 -5.15 M21.77 -6.22 C16.27 -3.86, 9.39 -3.36, -0.87 -1.9 M19.86 -5.32 C15.7 -3.95, 7.86 -2.63, -0.08 0.94 M0 0 C0 0, 0 0, 0 0 M0 0 C0 0, 0 0, 0 0" stroke="#000000" stroke-width="1" fill="none"></path></g></g><g stroke-linecap="round"><g transform="translate(601.7595159549728 545.4840225334137) rotate(0 6.336769432139818 5.812308992451676)" fill-rule="evenodd"><path d="M1.94 0.23 L0.6 4.06 L-3.1 7.92 L3.3 7.47 L8.36 12.89 L7.09 7.46 L14.51 5.86 L9.3 2.83 L10.47 -1.81 L5.48 0.72 L-1.05 -0.12" stroke="none" stroke-width="0" fill="#ffff" fill-rule="evenodd"></path><path d="M-0.27 -0.31 C0.91 0.92, 1.11 2.34, 2.32 4.03 M-0.15 -0.05 C0.36 1.18, 1.01 2.22, 1.7 4.06 M1.48 4.62 C0.87 5.32, -0.67 5.05, -4.05 7.63 M1.87 4.2 C-0.01 5.56, -1.83 6.23, -3.83 7.54 M-3.4 7.41 C-1.9 7.4, -0.04 7.33, 3.1 8.4 M-3.37 7.37 C-2.47 7.55, -0.75 8.21, 2.99 7.92 M3.53 8.44 C4.91 10.22, 5.62 12.12, 7.54 12.64 M3.34 8.18 C4.41 9.15, 5.1 10.42, 7.16 12.88 M7.27 12.24 C7.51 11.24, 7.23 9.68, 7.57 7.37 M6.74 12.65 C7.55 10.86, 7.5 9.64, 8.06 7.64 M8.2 7.64 C10.55 6.32, 14.77 6.66, 16.73 6.49 M8.21 7.49 C10.32 7.17, 11.79 6.83, 16.5 6.03 M16.67 5.9 C14.91 5.64, 12.97 4.48, 8.94 4.42 M16.4 6.44 C14.49 5.88, 12.35 5.06, 9.22 3.66 M9.46 4.48 C9.49 2.82, 10.11 1.85, 11.88 -1.22 M9.44 4.23 C10.16 2.13, 11.19 0.13, 11.4 -0.78 M11.65 -1.02 C9.76 -0.08, 7.38 0.22, 5.98 1.88 M11.31 -1.26 C10.32 -0.36, 8.49 -0.07, 5.45 1.75 M5.57 2.24 C3.43 1.09, 1.2 0.89, -0.47 0.46 M5.28 1.58 C3.8 1.38, 2.92 1.04, 0.18 0.12 M0 0 C0 0, 0 0, 0 0 M0 0 C0 0, 0 0, 0 0" stroke="#000000" stroke-width="1" fill="none"></path></g></g><g stroke-linecap="round"><g transform="translate(633.891536360572 555.5027542507953) rotate(0 -0.4561580314640423 5.119239733762242)" fill-rule="evenodd"><path d="M0.25 0.65 L12.23 6.07 L-0.53 11.03 L-14.61 4.47 L1.19 -0.76 L1.04 0.88" stroke="none" stroke-width="0" fill="#912626" fill-rule="evenodd"></path><path d="M1.16 -0.94 C5.07 1.68, 11.3 3.52, 12.72 5.14 M-0.51 -0.04 C2.93 0.82, 5.55 2, 12.34 5.32 M13.22 6.01 C7.05 6.02, 1.74 9.51, 0.07 11.18 M12.96 5.55 C8.22 6.43, 2.83 8.98, -0.6 10.76 M-0.86 9.65 C-3.9 7.96, -6.15 8.47, -14.13 3.88 M-1.03 10.05 C-3.52 9.79, -6.67 7.39, -12.5 5.4 M-12.31 5.98 C-10.32 4.9, -4.17 2.01, -0.43 -0.66 M-12.43 4.52 C-10.46 3.55, -7.04 3.44, 0.06 0.08 M0 0 C0 0, 0 0, 0 0 M0 0 C0 0, 0 0, 0 0 M0 0 C0 0, 0 0, 0 0 M0 0 C0 0, 0 0, 0 0" stroke="#000000" stroke-width="1" fill="none"></path></g></g><g stroke-linecap="round"><g transform="translate(632.2873464401491 555.2967192014787) rotate(0 0.17957640481859016 4.865971535501444)"><path d="M0.03 -0.32 C1.03 1.97, -0.01 4.82, -0.36 9.75 M-0.12 -0.34 C-0.5 2.49, -0.44 5.86, 0.72 10.07" stroke="#000000" stroke-width="1" fill="none"></path></g></g><g stroke-linecap="round" transform="translate(406.3850492287402 572.1819341493151) rotate(0 55.837686681004584 22.97627298835596)"><path d="M56.65 -1.38 L112.58 21.43 L55.83 45.96 L-0.57 24.79" stroke="none" stroke-width="0" fill="#c6302b" fill-rule="evenodd"></path><path d="M57.7 -0.9 C68.55 5.43, 80.76 9.61, 111.22 21.55 M55.05 -0.76 C71.37 7.3, 89.61 13.24, 112.26 23.13 M110.61 23.26 C92.62 31.7, 73.35 38.53, 55.75 45.78 M111.3 22.96 C92.27 30.93, 72.24 38.89, 55.79 45.7 M55.88 46.52 C40.85 37.87, 27.5 36.2, -1.02 21.5 M55.55 45.14 C43.08 41.13, 28.49 35.89, 0.41 23.51 M1.88 22.83 C19.41 13.41, 38.2 7.54, 55.87 1.69 M0.57 23.67 C11.45 18.91, 22.33 14.68, 55.16 0.41" stroke="#000000" stroke-width="1" fill="none"></path></g><g stroke-linecap="round"><g transform="translate(405.95569578872744 595.3803080547546) rotate(0 55.962646050640274 15.28766634256516)" fill-rule="evenodd"><path d="M-0.75 -0.08 L-0.39 6.36 L0.74 8.55 L56.14 30.28 L103.99 9.44 L108.79 6.76 L112.1 0.11 L108.41 -1.13 L58.8 21.79 L-1.5 -1.1" stroke="none" stroke-width="0" fill="#912626" fill-rule="evenodd"></path><path d="M-0.54 -0.26 C-0.49 0.11, -0.41 1.93, -0.06 3.2 C0.29 4.48, -2.27 5.03, 1.55 7.37 C5.38 9.7, 15.3 13.93, 22.86 17.2 C30.43 20.47, 41.52 24.87, 46.95 26.98 C52.37 29.09, 52.6 29.68, 55.42 29.87 C58.24 30.07, 58.09 30.26, 63.85 28.15 C69.61 26.04, 82.38 20.5, 89.98 17.22 C97.58 13.93, 105.82 10.69, 109.47 8.44 C113.12 6.19, 111.92 5.17, 111.89 3.7 C111.87 2.23, 111.07 -0.61, 109.32 -0.4 C107.57 -0.18, 109.24 1.33, 101.41 4.98 C93.59 8.63, 70.87 18.98, 62.37 21.51 C53.87 24.04, 60.83 23.66, 50.42 20.17 C40.01 16.68, 8.26 4.12, -0.1 0.57 M1.38 -1.44 C1.3 -0.41, -1.49 2.7, -1.04 4.36 C-0.6 6.03, 0.1 6.22, 4.04 8.54 C7.99 10.86, 15.16 15.2, 22.65 18.27 C30.14 21.34, 43.39 24.67, 48.99 26.96 C54.59 29.25, 53.75 32.02, 56.23 32.02 C58.71 32.01, 58.33 29.5, 63.88 26.91 C69.43 24.31, 82.12 19.75, 89.5 16.46 C96.88 13.16, 104.24 9.39, 108.16 7.14 C112.08 4.89, 112.86 4.09, 113.01 2.94 C113.16 1.8, 111.24 -0.06, 109.08 0.26 C106.93 0.57, 107.77 1.34, 100.08 4.81 C92.39 8.29, 71.34 18.59, 62.93 21.1 C54.52 23.62, 60.09 23.37, 49.63 19.9 C39.17 16.43, 8.21 3.7, 0.17 0.31" stroke="#000000" stroke-width="1" fill="none"></path></g></g><g stroke-linecap="round"><g transform="translate(405.7495949150782 578.1319937547976) rotate(0 55.0288987515396 14.934207107535883)" fill-rule="evenodd"><path d="M-0.22 0.93 L-1.76 6.34 L1.91 7.14 L55.42 29.9 L103.23 10.19 L111.25 5.25 L109.56 0.37 L112.32 -0.77 L55.36 21.7 L-0.16 1.89" stroke="none" stroke-width="0" fill="#912626" fill-rule="evenodd"></path><path d="M-0.06 -0.72 C-0.1 -0.07, -1.02 2.27, -0.77 3.65 C-0.52 5.04, -2.58 5.44, 1.46 7.58 C5.49 9.71, 16.02 13.27, 23.45 16.48 C30.89 19.7, 40.76 24.44, 46.08 26.85 C51.4 29.27, 52.06 30.92, 55.39 30.97 C58.72 31.02, 60.36 29.29, 66.06 27.16 C71.77 25.02, 82.41 21.42, 89.64 18.18 C96.86 14.94, 106.01 10.13, 109.43 7.71 C112.85 5.28, 109.99 4.8, 110.17 3.64 C110.36 2.48, 111.92 0.46, 110.53 0.73 C109.15 1.01, 110.04 1.98, 101.88 5.28 C93.72 8.59, 70.14 17.97, 61.57 20.57 C53.01 23.17, 60.7 24.5, 50.49 20.89 C40.27 17.28, 8.75 2.39, 0.26 -1.1 M-1.55 1.51 C-1.16 2.37, 0.63 3.82, 1.54 5.05 C2.45 6.27, 0.22 6.84, 3.89 8.86 C7.56 10.88, 16.26 14.19, 23.56 17.18 C30.85 20.16, 42.23 24.63, 47.67 26.77 C53.11 28.91, 53.53 29.65, 56.19 30.03 C58.84 30.41, 58.13 31.07, 63.59 29.05 C69.06 27.03, 81.56 21.15, 88.98 17.92 C96.4 14.69, 104.54 12.19, 108.11 9.68 C111.67 7.17, 109.91 4.14, 110.38 2.85 C110.86 1.57, 112.53 1.57, 110.94 1.97 C109.34 2.38, 109 2.33, 100.8 5.27 C92.6 8.22, 70.23 17.05, 61.72 19.67 C53.2 22.29, 59.89 24.04, 49.73 21 C39.56 17.95, 8.96 4.72, 0.73 1.42" stroke="#000000" stroke-width="1" fill="none"></path></g></g><g stroke-linecap="round" transform="translate(405.6904177197905 554.4688306710825) rotate(0 55.837686681004584 22.97627298835596)"><path d="M55.43 1.79 L109.8 22.75 L57.85 44.2 L-0.8 23.94" stroke="none" stroke-width="0" fill="#c6302b" fill-rule="evenodd"></path><path d="M55.54 -1.45 C72.17 6.68, 87.39 12.02, 110.17 21.05 M56.58 0.13 C74.35 7.16, 90.51 14.38, 111.8 23.41 M111.43 22.83 C93.17 31.44, 70.77 38.34, 55.92 45.73 M111.47 22.75 C91.63 30.77, 71.96 39.1, 56.28 45.14 M54.98 44.46 C43.77 41.71, 35.47 36.34, -1.63 24.56 M56.41 46.46 C38.22 38.05, 20.22 32.22, -0.08 22.69 M-0.13 24.69 C12.4 16.2, 27.01 12.13, 57.33 0.18 M-0.84 23.41 C17.86 14.84, 35.46 7.57, 55.91 0" stroke="#000000" stroke-width="1" fill="none"></path></g><g stroke-linecap="round" transform="translate(404.98067024176817 536.209443101296) rotate(0 55.837686681004584 22.97627298835596)"><path d="M54.12 -0.25 L113.52 21.25 L55.2 46.9 L0.54 24.66" stroke="none" stroke-width="0" fill="#c6302b" fill-rule="evenodd"></path><path d="M55.89 -0.46 C67.78 3.93, 80.7 9.3, 112 24.74 M56.55 -0.48 C68.23 4.76, 82.22 11.06, 112.2 23.66 M112.63 23.43 C93.88 28.77, 79.72 35.87, 56.93 44.37 M111.11 22.56 C91.45 30.73, 73.45 37.9, 55.02 45.27 M54.9 45.79 C35.77 35.51, 10.02 28.87, 0.55 22.81 M56.55 45.21 C36.36 38.8, 14.94 29.17, -0.47 22.16 M-1.97 22.4 C19.04 15.23, 42.48 5.81, 56.24 -0.65 M0.32 22.31 C20.41 13.87, 39.63 6.54, 55.72 0.9" stroke="#000000" stroke-width="1" fill="none"></path></g><g stroke-linecap="round"><g transform="translate(404.666465394845 559.5511147814434) rotate(0 55.266185111741265 15.482575974045062)" fill-rule="evenodd"><path d="M-1.14 -0.87 L-2.07 5.31 L2.89 6.01 L54.59 29.41 L107.07 9.29 L109.19 5.78 L111.37 3.63 L109.47 -1.39 L58.41 23.35 L-0.19 1.3" stroke="none" stroke-width="0" fill="#912626" fill-rule="evenodd"></path><path d="M-0.28 -0.78 C-0.32 -0.27, -1.38 1.59, -1.14 3.02 C-0.9 4.46, -3.16 5.59, 1.15 7.83 C5.47 10.07, 16.98 13.12, 24.77 16.46 C32.57 19.81, 42.51 25.63, 47.92 27.92 C53.33 30.21, 54.55 30.3, 57.22 30.2 C59.89 30.1, 58.65 29.27, 63.96 27.32 C69.27 25.37, 81.52 21.55, 89.09 18.51 C96.67 15.47, 105.73 11.47, 109.4 9.08 C113.06 6.68, 110.92 5.5, 111.07 4.13 C111.21 2.75, 111.87 0.93, 110.28 0.81 C108.69 0.69, 109.68 0.08, 101.52 3.39 C93.35 6.7, 69.8 17.76, 61.29 20.67 C52.78 23.59, 60.83 24.23, 50.46 20.88 C40.08 17.52, 7.5 4.07, -0.95 0.55 M1.78 1.42 C2.16 2.07, 0.7 2.78, 0.97 4.08 C1.25 5.39, -0.06 7.08, 3.43 9.25 C6.92 11.43, 14.68 13.96, 21.91 17.15 C29.14 20.34, 41.25 25.83, 46.81 28.39 C52.38 30.95, 52.45 32.37, 55.32 32.52 C58.19 32.67, 58.57 31.65, 64.05 29.3 C69.52 26.95, 80.82 21.96, 88.15 18.43 C95.49 14.9, 104.12 10.58, 108.05 8.11 C111.99 5.64, 111.33 5.21, 111.75 3.6 C112.16 1.98, 112.46 -1.97, 110.54 -1.57 C108.63 -1.16, 108.45 2.48, 100.24 6.04 C92.03 9.61, 69.71 17.34, 61.29 19.83 C52.86 22.31, 60.09 24.24, 49.68 20.98 C39.28 17.72, 7.05 3.64, -1.12 0.27" stroke="#000000" stroke-width="1" fill="none"></path></g></g><g stroke-linecap="round" transform="translate(424.96505663498283 553.6440488073656) rotate(0 12.053899714137515 5.311888009619906)"><path d="M9.19 0.99 C11.52 0.51, 14.27 -0.21, 16.46 0.26 C18.66 0.72, 21.04 2.67, 22.35 3.78 C23.65 4.88, 24.86 5.97, 24.27 6.92 C23.68 7.86, 20.99 8.95, 18.81 9.42 C16.63 9.89, 13.72 9.77, 11.2 9.75 C8.68 9.73, 5.69 9.9, 3.71 9.29 C1.74 8.67, -0.31 7.28, -0.67 6.08 C-1.02 4.88, -0.27 3.11, 1.59 2.06 C3.45 1.01, 8.65 0.24, 10.5 -0.24 C12.34 -0.72, 12.65 -1.12, 12.65 -0.83 M7.34 1.75 C9.74 1.02, 13.54 -0.52, 16.01 -0.38 C18.48 -0.23, 20.75 1.74, 22.16 2.63 C23.57 3.51, 24.91 3.66, 24.46 4.95 C24.01 6.24, 21.3 9.33, 19.45 10.37 C17.6 11.4, 15.66 11.38, 13.36 11.13 C11.06 10.89, 7.59 9.39, 5.67 8.9 C3.74 8.41, 2.46 9.11, 1.84 8.18 C1.21 7.26, 0.91 4.52, 1.91 3.32 C2.9 2.13, 7.17 1.38, 7.79 0.99 C8.42 0.6, 5.69 1.07, 5.68 0.97" stroke="none" stroke-width="0" fill="#ffff"></path><path d="M5.74 1.2 C7.83 0.58, 12.15 0.67, 14.71 0.67 C17.26 0.66, 19.6 0.33, 21.08 1.16 C22.56 1.99, 23.51 4.26, 23.57 5.63 C23.62 7, 22.94 8.59, 21.41 9.39 C19.88 10.19, 17.03 10.38, 14.38 10.43 C11.73 10.49, 7.75 10.27, 5.53 9.73 C3.31 9.18, 1.99 8.3, 1.06 7.16 C0.13 6.03, -1.01 4.07, -0.04 2.94 C0.94 1.82, 5.55 0.93, 6.89 0.4 C8.23 -0.14, 7.85 -0.36, 8.02 -0.29 M9.13 -0.05 C11.75 -0.35, 16.85 -0.84, 19.01 -0.37 C21.17 0.09, 21.16 1.55, 22.09 2.72 C23.03 3.88, 25.56 5.53, 24.62 6.61 C23.68 7.69, 19 8.33, 16.44 9.21 C13.88 10.09, 11.7 12.23, 9.26 11.91 C6.81 11.59, 3.12 8.37, 1.77 7.3 C0.42 6.22, 0.97 6.23, 1.18 5.46 C1.4 4.69, 1.41 3.45, 3.07 2.68 C4.73 1.9, 9.77 1.41, 11.16 0.8 C12.55 0.2, 11.25 -1.16, 11.4 -0.97" stroke="#000000" stroke-width="1" fill="none"></path></g><g stroke-linecap="round"><g transform="translate(447.08169807823174 569.9069463496794) rotate(0 9.953530703851811 -0.45360061840273147)" fill-rule="evenodd"><path d="M0.54 1.66 L16.63 4.43 L21.17 -4.14 L0.53 -1.08" stroke="none" stroke-width="0" fill="#ffff" fill-rule="evenodd"></path><path d="M0.26 1.42 C2.04 2.16, 6.52 3.17, 14.69 3.73 M0.43 0.54 C3.72 1.11, 7.58 2.88, 15.65 4.42 M16 4.29 C17.4 2.37, 18.02 -0.61, 20.36 -5.7 M14.93 4.79 C17.57 2.05, 18.19 -0.86, 20.8 -4.11 M21.39 -4.83 C16.8 -2.48, 11.21 -1.02, -1.49 1.78 M20.37 -5.48 C13.3 -2.94, 5.25 -2.03, -0.3 -0.77 M0 0 C0 0, 0 0, 0 0 M0 0 C0 0, 0 0, 0 0" stroke="#000000" stroke-width="1" fill="none"></path></g></g><g stroke-linecap="round"><g transform="translate(454.8955025353416 543.2245761731109) rotate(0 6.455056158269144 5.851882487332432)" fill-rule="evenodd"><path d="M0.64 -1.83 L0.91 3.53 L-4.16 8.42 L1.91 7.79 L6.13 10.69 L8.3 6.92 L14.62 5.28 L9.33 2.29 L11.35 -0.85 L6.44 1.65 L-0.1 -0.1" stroke="none" stroke-width="0" fill="#ffff" fill-rule="evenodd"></path><path d="M-0.31 0.27 C0.46 1.1, 0.56 1.29, 1.67 4.3 M-0.03 -0.03 C0.66 1.54, 1.38 2.66, 1.83 4.23 M2.22 4.1 C0.15 4.78, -1.6 5.49, -3.75 7.73 M2.24 4.07 C0.41 4.74, -0.6 5.95, -3.86 7.28 M-3.26 7.83 C-0.77 8.18, 0.96 8.66, 3.79 8.14 M-3.48 7.53 C-1.57 7.44, -0.12 7.69, 3.34 8.43 M3.46 7.71 C4.58 9.79, 5.12 11.25, 6.52 12.64 M2.87 8.17 C4.56 9.26, 5.32 11, 7.07 12.93 M7.12 12.83 C7.07 10.39, 8.19 9, 8.18 7.6 M7.13 12.73 C7.34 11.45, 7.19 10.12, 8.04 7.31 M8.26 7.08 C10.5 7.09, 12.54 6.11, 16.11 6.71 M7.96 7.69 C10.16 7.32, 12.09 6.74, 16.43 5.85 M16.77 6.89 C14.75 5.51, 13.51 5.13, 9.82 3.71 M16.74 6.55 C13.81 5.39, 11.3 4.41, 9.15 4.31 M9.38 3.97 C9.97 2.57, 10.18 0.63, 11.95 -0.92 M9.11 3.78 C9.83 2.99, 9.91 1.63, 11.51 -1.03 M11.69 -0.44 C9.23 -0.12, 6.67 1.33, 4.81 2.31 M11.35 -1.23 C9.61 -0.27, 8.63 0.53, 5.58 1.9 M5.78 1.73 C4.33 1.44, 1.77 0.6, -0.22 0.15 M5.32 1.51 C3.94 1.17, 2.78 0.91, -0.21 -0.06 M0 0 C0 0, 0 0, 0 0 M0 0 C0 0, 0 0, 0 0" stroke="#000000" stroke-width="1" fill="none"></path></g></g><g stroke-linecap="round"><g transform="translate(487.02752294094216 553.2433078904921) rotate(0 0.07929608981521596 5.379571307281367)" fill-rule="evenodd"><path d="M-0.8 0.9 L14.86 4.68 L-1.07 10.49 L-13.38 6.82 L-0.71 1.62 L-0.31 -0.79" stroke="none" stroke-width="0" fill="#912626" fill-rule="evenodd"></path><path d="M0.19 0.77 C4.33 0.7, 9.3 4.14, 13.6 5.94 M-0.06 0.33 C4.91 1.28, 9.27 3.8, 12.95 5.54 M12.66 4.38 C9.42 4.96, 6.97 7.89, -1.7 8.99 M12.48 4.81 C9.88 7.03, 6.47 6.96, 0.04 10.62 M0.17 11.16 C-5.19 10.17, -6.54 7.33, -13.44 4.58 M0.05 9.75 C-3.46 8.77, -5.56 8.61, -12.96 5.29 M-12.44 5.66 C-10.53 4.56, -7.19 2.41, 0.01 -0.4 M-12.38 4.59 C-8.18 3.53, -2.63 1.75, 0.4 -0.26 M0 0 C0 0, 0 0, 0 0 M0 0 C0 0, 0 0, 0 0 M0 0 C0 0, 0 0, 0 0 M0 0 C0 0, 0 0, 0 0" stroke="#000000" stroke-width="1" fill="none"></path></g></g><g stroke-linecap="round"><g transform="translate(485.4233330205184 553.0372728411771) rotate(0 0.22816850330218585 4.867035511500887)"><path d="M-0.5 -0.92 C-0.44 3.86, 0.63 8.01, 0.96 10.27 M0.11 -0.48 C-0.13 2.98, 0.09 6.24, -0.15 10.66" stroke="#000000" stroke-width="1" fill="none"></path></g></g><g stroke-linecap="round" transform="translate(272.3245651841544 569.1693390022451) rotate(0 55.837686681004584 22.97627298835596)"><path d="M54.48 1.74 L111.98 23.71 L56.67 44.93 L1.89 24.98" stroke="none" stroke-width="0" fill="#c6302b" fill-rule="evenodd"></path><path d="M54.94 0.26 C76.47 9.7, 96.74 16.55, 111.43 22.83 M55.63 -0.04 C75.29 8.97, 93.95 16.95, 111.47 22.75 M111.55 23.56 C96.41 26.08, 83.14 35.57, 54.98 44.46 M111.22 22.18 C98.8 29.42, 84.28 35.42, 56.41 46.46 M57.88 45.78 C35.7 37.38, 14.77 31.52, -0.13 24.69 M56.57 46.62 C44.86 41.01, 33.16 36.79, -0.84 23.41 M-1.57 22.83 C18.78 14.53, 39.17 5.58, 55.75 1.85 M0.27 23.83 C12.56 17.48, 24.03 13.22, 56.26 -0.54" stroke="#000000" stroke-width="1" fill="none"></path></g><g stroke-linecap="round"><g transform="translate(271.8995944030122 592.3493698559746) rotate(0 55.46485239001754 14.62535927828327)" fill-rule="evenodd"><path d="M-0.91 -1.63 L1.38 5.98 L2.13 8.94 L57.38 31.79 L106.22 8.82 L112.47 8.76 L111.36 1.13 L109.44 -1.45 L58.2 22.67 L1.69 -1.97" stroke="none" stroke-width="0" fill="#912626" fill-rule="evenodd"></path><path d="M0.16 0.49 C0.44 1.38, 0.29 3.55, 0.63 4.72 C0.96 5.89, -1.68 5.31, 2.16 7.49 C5.99 9.68, 16.07 14.64, 23.63 17.84 C31.18 21.03, 42.07 24.51, 47.48 26.66 C52.9 28.81, 53.21 30.42, 56.11 30.73 C59.01 31.04, 59.58 30.54, 64.89 28.52 C70.2 26.49, 80.72 21.99, 87.99 18.57 C95.26 15.14, 104.76 10.45, 108.52 7.98 C112.28 5.51, 110.43 5.05, 110.55 3.75 C110.67 2.45, 110.73 0.21, 109.24 0.17 C107.75 0.13, 109.71 0.22, 101.59 3.51 C93.48 6.8, 68.87 17.2, 60.56 19.9 C52.25 22.6, 62 23.14, 51.75 19.71 C41.51 16.28, 7.74 2.44, -0.9 -0.66 M-1.22 -0.3 C-0.95 0.32, -0.41 1.51, 0.01 3.01 C0.43 4.52, -2.67 6.64, 1.3 8.73 C5.27 10.83, 16.35 12.62, 23.82 15.58 C31.3 18.53, 40.57 24.12, 46.15 26.47 C51.73 28.82, 54.07 29.5, 57.29 29.67 C60.51 29.83, 59.99 29.32, 65.47 27.46 C70.94 25.6, 82.64 21.4, 90.13 18.51 C97.61 15.62, 106.91 12.68, 110.38 10.1 C113.85 7.52, 111.2 4.52, 110.96 3.02 C110.73 1.53, 110.73 0.58, 108.96 1.11 C107.2 1.65, 108.49 2.7, 100.36 6.23 C92.23 9.76, 68.29 20.14, 60.17 22.3 C52.05 24.46, 61.86 23.18, 51.66 19.2 C41.46 15.22, 7.42 1.75, -1.04 -1.56" stroke="#000000" stroke-width="1" fill="none"></path></g></g><g stroke-linecap="round"><g transform="translate(271.50555352914637 574.886295885362) rotate(0 55.15534273393274 15.305728893171192)" fill-rule="evenodd"><path d="M1.56 0.55 L-0.37 6.73 L3.14 8.66 L57.65 29.29 L106.91 12.19 L110.52 6.26 L110.59 0.06 L111.73 0.11 L58.55 20.84 L-0.6 -1.54" stroke="none" stroke-width="0" fill="#912626" fill-rule="evenodd"></path><path d="M0.63 0.79 C0.57 1.34, -0.43 2.54, -0.17 3.78 C0.1 5.02, -1.8 6.15, 2.22 8.21 C6.25 10.28, 16.57 12.91, 23.99 16.16 C31.42 19.41, 41.37 25.18, 46.77 27.71 C52.18 30.24, 53.55 31.2, 56.43 31.34 C59.31 31.47, 58.7 30.77, 64.07 28.5 C69.45 26.23, 81.35 21.18, 88.69 17.72 C96.03 14.26, 104.52 10.01, 108.09 7.76 C111.65 5.51, 109.66 5.62, 110.1 4.2 C110.53 2.78, 112.39 -0.65, 110.72 -0.74 C109.05 -0.83, 108.04 0.19, 100.07 3.67 C92.11 7.14, 71.3 17.44, 62.91 20.11 C54.51 22.77, 60.19 22.82, 49.69 19.66 C39.19 16.49, 8.28 4.57, -0.1 1.13 M-0.5 0.16 C-0.74 0.86, -1.52 4.24, -1.2 5.24 C-0.89 6.24, -2.86 4.26, 1.4 6.17 C5.67 8.08, 16.49 13.04, 24.38 16.69 C32.26 20.34, 43.16 25.76, 48.73 28.08 C54.29 30.4, 55.19 30.69, 57.77 30.59 C60.35 30.48, 59.26 29.67, 64.22 27.44 C69.18 25.22, 79.95 20.17, 87.53 17.22 C95.12 14.27, 105.93 12.01, 109.72 9.76 C113.51 7.51, 110.02 5.38, 110.27 3.71 C110.52 2.04, 112.64 -0.12, 111.22 -0.27 C109.79 -0.42, 110.22 -0.39, 101.7 2.81 C93.18 6.02, 68.34 16.25, 60.09 18.97 C51.83 21.68, 62.16 22.09, 52.18 19.12 C42.19 16.15, 8.85 4.4, 0.18 1.17" stroke="#000000" stroke-width="1" fill="none"></path></g></g><g stroke-linecap="round" transform="translate(271.6299336752036 551.4562355240134) rotate(0 55.837686681004584 22.97627298835596)"><path d="M57.89 1.98 L112.73 23.33 L57.15 46.6 L-1.81 23.5" stroke="none" stroke-width="0" fill="#c6302b" fill-rule="evenodd"></path><path d="M55.75 -0.17 C76.71 8.61, 93.53 15.53, 111.6 22.78 M55.79 -0.25 C74.54 7.28, 93.45 15.62, 111.96 22.18 M110.66 21.5 C99.19 28.01, 90.96 31.89, 54.37 47.51 M112.08 23.51 C93.96 30.14, 76.07 39.34, 55.92 45.65 M55.87 47.64 C40.05 39.91, 26.3 35.86, 1.33 23.18 M55.16 46.37 C38.93 38.4, 21.6 31.15, -0.09 23 M-0.25 24.85 C13.24 16.48, 31.15 11.58, 57.66 1.15 M0.26 22.46 C13.92 17.68, 29.56 11.12, 56.34 -0.51" stroke="#000000" stroke-width="1" fill="none"></path></g><g stroke-linecap="round" transform="translate(270.92018619718124 533.196847954228) rotate(0 55.837686681004584 22.97627298835596)"><path d="M57.05 0.33 L112.82 23.65 L54.19 46.45 L0.36 22.19" stroke="none" stroke-width="0" fill="#c6302b" fill-rule="evenodd"></path><path d="M56.95 0.43 C70.06 5.88, 87.75 12.99, 112.61 21.42 M55.43 -0.44 C74.24 8.02, 94.7 15.21, 110.69 22.32 M110.57 22.84 C91.34 30.79, 65.72 42.37, 56.55 45.76 M112.22 22.26 C92.34 32.6, 71.04 39.73, 55.53 45.11 M54.03 45.35 C33.91 39.15, 16.21 29.74, 0.24 22.35 M56.32 45.26 C36.88 37.3, 16.59 29.99, -0.28 23.9 M-1.75 22.2 C12.52 18.28, 24.79 14.15, 55.26 0.33 M-0.76 23.87 C18.27 16.19, 36.64 7.86, 56.95 0.99" stroke="#000000" stroke-width="1" fill="none"></path></g><g stroke-linecap="round"><g transform="translate(270.8343795567355 556.9242819915019) rotate(0 55.34705258181532 15.74826570047469)" fill-rule="evenodd"><path d="M1.09 -1.49 L1.61 7.31 L2.15 7.03 L55.62 29.09 L106.47 10.18 L112.38 4.91 L110.93 0.2 L111.53 1.57 L57.03 23.04 L-0.65 1.06" stroke="none" stroke-width="0" fill="#912626" fill-rule="evenodd"></path><path d="M0.26 -1.1 C0.2 -0.55, -0.77 2.33, -0.45 3.88 C-0.13 5.43, -1.68 5.88, 2.19 8.2 C6.07 10.52, 15.32 14.6, 22.78 17.81 C30.24 21.02, 41.46 25.38, 46.97 27.46 C52.49 29.53, 53.06 30.18, 55.88 30.25 C58.69 30.33, 58.32 30.09, 63.88 27.89 C69.45 25.68, 81.99 20.45, 89.28 17.04 C96.56 13.64, 103.74 9.69, 107.59 7.46 C111.44 5.23, 112.08 4.98, 112.4 3.67 C112.71 2.35, 111.36 -0.75, 109.48 -0.42 C107.61 -0.09, 109.21 2.26, 101.16 5.62 C93.11 8.98, 69.47 17.24, 61.2 19.74 C52.93 22.25, 61.74 23.81, 51.52 20.65 C41.3 17.49, 8.39 4.12, -0.12 0.78 M-1.06 0.93 C-1.31 1.64, -2.03 4.53, -1.63 5.4 C-1.23 6.27, -2.67 4.46, 1.36 6.15 C5.39 7.84, 14.58 11.95, 22.53 15.54 C30.48 19.13, 43.3 24.85, 49.03 27.69 C54.76 30.53, 54.45 32.8, 56.93 32.6 C59.41 32.4, 58.68 28.63, 63.93 26.5 C69.18 24.38, 80.93 22.71, 88.43 19.85 C95.94 16.98, 105.34 12.13, 108.96 9.31 C112.57 6.48, 110.06 4.41, 110.12 2.89 C110.18 1.38, 111.07 -0.26, 109.33 0.22 C107.6 0.7, 107.73 2.15, 99.7 5.79 C91.67 9.43, 69.21 19.59, 61.14 22.06 C53.08 24.54, 61.47 24.2, 51.31 20.63 C41.14 17.06, 8.41 4.32, 0.15 0.63" stroke="#000000" stroke-width="1" fill="none"></path></g></g><g stroke-linecap="round" transform="translate(290.90457259039545 550.6314536602965) rotate(0 12.053899714137515 5.311888009619906)"><path d="M10.22 0.98 C12.33 0.85, 15.24 -0.09, 17.54 0.4 C19.83 0.89, 22.89 2.68, 23.98 3.93 C25.07 5.17, 25.18 6.83, 24.07 7.86 C22.97 8.9, 19.75 9.68, 17.37 10.16 C15 10.65, 12.38 11.16, 9.83 10.78 C7.27 10.39, 3.53 8.75, 2.03 7.83 C0.54 6.92, 0.64 6.25, 0.88 5.29 C1.11 4.34, 1.66 2.83, 3.43 2.1 C5.19 1.38, 9.6 1.18, 11.46 0.95 C13.32 0.71, 14.45 0.65, 14.56 0.68 M14.28 -0.53 C16.84 -0.4, 18.85 1.36, 20.52 2.4 C22.19 3.45, 24.25 4.58, 24.29 5.74 C24.34 6.89, 22.45 8.45, 20.78 9.33 C19.11 10.2, 16.91 10.98, 14.28 10.99 C11.64 11, 7.06 10.12, 4.96 9.39 C2.86 8.66, 2.25 7.48, 1.66 6.62 C1.08 5.76, 0.77 5.03, 1.46 4.21 C2.15 3.39, 3.74 2.24, 5.81 1.7 C7.88 1.16, 12.72 1.24, 13.89 0.98 C15.07 0.73, 12.88 0.45, 12.87 0.18" stroke="none" stroke-width="0" fill="#ffff"></path><path d="M11.85 -0.2 C14.17 -0.29, 17.12 -0.07, 19.04 0.49 C20.96 1.05, 22.74 1.91, 23.36 3.16 C23.97 4.41, 23.97 6.99, 22.74 8 C21.51 9.01, 18.45 8.65, 15.97 9.21 C13.49 9.77, 10.29 11.66, 7.87 11.37 C5.45 11.07, 2.84 8.59, 1.45 7.47 C0.06 6.34, -1.01 5.68, -0.46 4.6 C0.09 3.52, 2.68 1.62, 4.76 0.98 C6.83 0.35, 10.38 0.94, 11.99 0.79 C13.6 0.64, 14.2 0.07, 14.44 0.09 M16.42 1.58 C18.68 1.9, 20.59 1.29, 21.75 1.77 C22.91 2.25, 23.38 3.28, 23.37 4.47 C23.35 5.66, 23.13 8.16, 21.65 8.94 C20.17 9.72, 17.28 9.19, 14.46 9.12 C11.65 9.06, 6.96 8.77, 4.76 8.53 C2.57 8.3, 1.89 8.6, 1.3 7.72 C0.71 6.85, 0.37 4.35, 1.22 3.28 C2.07 2.21, 4.29 1.72, 6.39 1.31 C8.49 0.89, 12.31 1.14, 13.83 0.79 C15.35 0.45, 15.24 -0.54, 15.51 -0.76" stroke="#000000" stroke-width="1" fill="none"></path></g><g stroke-linecap="round"><g transform="translate(313.4925146376844 566.8135207568259) rotate(0 9.852503811189763 0.3272768976929683)" fill-rule="evenodd"><path d="M0.36 -0.81 L14.57 5.91 L21.09 -3.99 L-0.79 0.86" stroke="none" stroke-width="0" fill="#ffff" fill-rule="evenodd"></path><path d="M0.76 -1.29 C4.8 1.04, 7.72 1.81, 14.77 3.62 M-0.8 -0.56 C5.35 1.23, 8.5 2.72, 15.41 5.94 M15.79 5.06 C17.65 3.09, 18.86 0.74, 20.01 -3.64 M15.22 4.7 C17.98 1.28, 20.19 -3.09, 20.67 -5.07 M21.08 -5.29 C14.48 -4.64, 6.8 -0.66, -1.38 0.9 M20.56 -3.74 C15.29 -3.73, 12.53 -3.46, -0.4 0.47 M0 0 C0 0, 0 0, 0 0 M0 0 C0 0, 0 0, 0 0" stroke="#000000" stroke-width="1" fill="none"></path></g></g><g stroke-linecap="round"><g transform="translate(320.83501849075446 540.2119810260408) rotate(0 6.539924142305949 5.782789214932052)" fill-rule="evenodd"><path d="M0.56 0.64 L0.17 3.71 L-5.36 9.08 L2.62 6.83 L7.66 12.79 L8.49 7.12 L16.62 4.67 L7.95 3.55 L11.46 -1.75 L5.34 3.44 L1.69 1.75" stroke="none" stroke-width="0" fill="#ffff" fill-rule="evenodd"></path><path d="M0.21 -0.1 C0.46 0.98, 0.93 2.03, 1.89 4.37 M0.23 -0.12 C0.2 0.81, 0.78 2.08, 1.81 4.05 M2.35 4.51 C0.13 5.84, -2.81 7.32, -3.09 7.49 M2.14 4.22 C0.67 4.76, -1.23 5.72, -3.52 7.77 M-3.34 6.97 C-1.31 8, 0.05 8.29, 2.61 8.14 M-4.03 7.51 C-1.33 7.38, 0.27 8.04, 3.24 8.49 M3.29 8.36 C4.18 9.35, 6.39 11.49, 7.2 12.89 M3.3 8.25 C4.31 9.38, 4.83 10.47, 7.04 12.57 M7.16 12.47 C7.45 11.34, 7.64 9.58, 7.79 7.73 M6.97 12.86 C7.2 11.46, 7.29 9.92, 7.99 7.19 M8.37 8.2 C9.47 6.97, 11.44 6.8, 17.11 5.9 M8.34 7.81 C11.35 7.07, 14.84 6.46, 16.35 6.58 M16.66 6.2 C14.41 5.66, 11.62 4.39, 9.91 4.11 M16.28 5.93 C15.05 5.77, 12.9 4.92, 9.31 3.97 M9.42 4.45 C9.95 2.12, 10.36 0.78, 10.99 -0.57 M9.14 3.8 C9.56 2.78, 10.53 1.64, 11.62 -0.9 M11.93 -1.05 C10.28 -0.01, 7.32 0.39, 5.11 1.94 M11.39 -1.32 C9.82 -0.42, 8.53 0.56, 5.12 1.69 M5.31 1.93 C3.33 1.07, 0.89 0.71, 0.06 -0.25 M5.38 1.6 C3.62 1.11, 2.15 0.54, -0.15 -0.02 M0 0 C0 0, 0 0, 0 0 M0 0 C0 0, 0 0, 0 0" stroke="#000000" stroke-width="1" fill="none"></path></g></g><g stroke-linecap="round"><g transform="translate(352.9670388963551 550.230712743423) rotate(0 -0.01074539799537888 5.0295734811544435)" fill-rule="evenodd"><path d="M0.22 0.62 L13.02 5.6 L-0.2 9.13 L-14.31 7.06 L0.37 -1.61 L1.25 -1.96" stroke="none" stroke-width="0" fill="#912626" fill-rule="evenodd"></path><path d="M-0.35 -0.8 C2.29 -0.15, 5.69 2.72, 11.88 3.83 M-0.52 -0.39 C3.01 1.93, 5.77 1.91, 13.57 5.4 M13.76 6 C8.05 8.07, 6.56 8.17, -0.97 9.74 M13.64 4.5 C9.92 5.77, 7.63 7.93, -0.46 10.51 M0.04 10.86 C-4.82 9.53, -8.3 7.41, -13.02 4.82 M0.1 9.83 C-5.62 8.69, -10.03 6.91, -12.63 4.96 M-13.78 4.14 C-7.69 3.74, -4.29 2.35, -0.72 1.33 M-12.62 5.44 C-8.49 3.28, -2.53 0.75, -0.32 0.26 M0 0 C0 0, 0 0, 0 0 M0 0 C0 0, 0 0, 0 0 M0 0 C0 0, 0 0, 0 0 M0 0 C0 0, 0 0, 0 0" stroke="#000000" stroke-width="1" fill="none"></path></g></g><g stroke-linecap="round"><g transform="translate(351.36284897593123 550.0246776941069) rotate(0 -0.12403666604922137 5.22106621650147)"><path d="M-0.45 -0.99 C-0.02 3.21, -0.73 4.8, -0.45 11.43 M-0.04 0.49 C-0.25 2.17, 0.46 5.34, 0.22 10.76" stroke="#000000" stroke-width="1" fill="none"></path></g></g><g stroke-linecap="round" transform="translate(342.7939795139714 149.64264597901808) rotate(0 55.78947368421052 42.5)"><path d="M21.25 0 M21.25 0 C36.45 -0.91, 51.16 -0.18, 90.33 0 M21.25 0 C43.66 -0.85, 67.09 -1.07, 90.33 0 M90.33 0 C105.48 -0.27, 111.67 5.36, 111.58 21.25 M90.33 0 C105.06 0.21, 112.59 8.48, 111.58 21.25 M111.58 21.25 C110.62 33.38, 110.9 47.13, 111.58 63.75 M111.58 21.25 C112.17 34.01, 111.52 48.94, 111.58 63.75 M111.58 63.75 C112.12 77.85, 103.53 86.26, 90.33 85 M111.58 63.75 C110.16 79.73, 104.17 86.22, 90.33 85 M90.33 85 C64.61 86.41, 34.95 85.34, 21.25 85 M90.33 85 C76.51 85.49, 62.14 84.03, 21.25 85 M21.25 85 C6.25 84.88, 0.05 77.02, 0 63.75 M21.25 85 C6.36 85.29, -2.01 75.66, 0 63.75 M0 63.75 C1.05 49.83, 0.02 32.33, 0 21.25 M0 63.75 C-0.11 48.97, -0.98 33.96, 0 21.25 M0 21.25 C-1.8 5.45, 6.46 -0.13, 21.25 0 M0 21.25 C0.1 8.11, 5.31 0.98, 21.25 0" stroke="#0b7285" stroke-width="1" fill="none"></path></g><g stroke-linecap="round"><g transform="translate(350.6887163560766 229.90580387375462) rotate(0 14.6001629195963 -9.3764516864847)"><path d="M-0.18 0.72 C0.43 0.63, -0.75 3.22, 4.43 -0.16 C9.62 -3.53, 26.33 -16.38, 30.93 -19.53 M-1.73 0.06 C-1.26 0.14, -1.29 5.03, 4.02 1.44 C9.32 -2.15, 25.31 -17.74, 30.1 -21.49" stroke="#0b7285" stroke-width="1" fill="none"></path></g></g><g stroke-linecap="round"><g transform="translate(380.9518742508135 208.59001440007046) rotate(0 9.312180371170996 7.619101439690894)"><path d="M0.74 -1.02 C3.81 1.56, 15.93 13.63, 18.96 16.26 M-0.33 1.06 C2.56 3.24, 15.05 12.08, 18.15 14.52" stroke="#0b7285" stroke-width="1" fill="none"></path></g></g><g stroke-linecap="round"><g transform="translate(388.8466110929187 233.0636986105967) rotate(0 8.004907418595565 -7.217525116080026)"><path d="M0.47 0.7 C3.39 -1.48, 14.1 -11.04, 16.75 -13.33 M-0.74 0.02 C2.05 -2.49, 12.35 -12.64, 15.62 -15.13" stroke="#0b7285" stroke-width="1" fill="none"></path></g></g><g stroke-linecap="round"><g transform="translate(405.42555846133973 218.59001440007046) rotate(0 9.651362877798192 7.813454594188386)"><path d="M0.73 -0.67 C3.9 2.01, 16.67 12.13, 19.64 14.84 M-0.34 1.6 C2.64 4.57, 15.96 14.3, 18.92 16.29" stroke="#0b7285" stroke-width="1" fill="none"></path></g></g><g stroke-linecap="round" transform="translate(423.5834531981818 206.22159334743878) rotate(0 4.21052631578948 3.8157894736842195)"><path d="M2.56 0.6 C3.51 0.21, 5.65 -0.55, 6.37 -0.4 C7.09 -0.25, 6.4 0.77, 6.88 1.53 C7.36 2.29, 9.3 3.38, 9.24 4.17 C9.17 4.96, 7.17 5.69, 6.49 6.26 C5.82 6.83, 5.85 7.45, 5.19 7.58 C4.53 7.71, 3.53 7.56, 2.53 7.04 C1.52 6.53, -0.43 5.32, -0.82 4.49 C-1.22 3.65, -0.37 2.61, 0.16 2.04 C0.69 1.47, 1.72 1.44, 2.34 1.08 C2.95 0.71, 3.63 -0.02, 3.83 -0.15 M3.79 1.27 C4.79 0.79, 7.33 -0.53, 7.83 -0.54 C8.34 -0.55, 6.52 0.44, 6.82 1.21 C7.11 1.97, 9.49 3.06, 9.6 4.07 C9.71 5.08, 8.49 6.55, 7.46 7.26 C6.43 7.97, 4.3 8.57, 3.43 8.33 C2.55 8.09, 2.79 6.46, 2.21 5.8 C1.62 5.14, 0.14 5.03, -0.09 4.36 C-0.32 3.69, 0.05 2.6, 0.84 1.77 C1.63 0.95, 4.27 -0.37, 4.65 -0.57 C5.04 -0.77, 3.14 0.44, 3.12 0.57" stroke="#0b7285" stroke-width="1" fill="none"></path></g><g stroke-linecap="round"><g transform="translate(398.32029530344494 188.85317229480734) rotate(0 0.9575327976795052 -25.383226872472875)"><path d="M0.73 -0.71 C3.39 -3.25, 12.33 -9.41, 16.29 -14.67 C20.25 -19.93, 24.19 -27.09, 24.49 -32.26 C24.79 -37.43, 20.8 -42.45, 18.11 -45.68 C15.41 -48.9, 11.72 -50.67, 8.31 -51.6 C4.89 -52.53, 1.15 -51.88, -2.38 -51.26 C-5.91 -50.64, -10.27 -49.66, -12.87 -47.87 C-15.47 -46.08, -16.51 -43.48, -17.99 -40.52 C-19.46 -37.56, -24.59 -36.87, -21.72 -30.12 C-18.85 -23.37, -4.49 -4.98, -0.79 -0.03 M-0.34 1.53 C2.21 -0.94, 11.83 -7.73, 15.89 -13.65 C19.94 -19.57, 23.62 -28.28, 24.01 -33.99 C24.39 -39.7, 20.5 -45.01, 18.19 -47.9 C15.88 -50.79, 13.33 -50.65, 10.16 -51.35 C6.99 -52.06, 2.91 -52.58, -0.84 -52.13 C-4.59 -51.68, -9.4 -50.46, -12.35 -48.65 C-15.3 -46.84, -17.27 -44.71, -18.51 -41.27 C-19.75 -37.84, -22.82 -34.83, -19.8 -28.04 C-16.79 -21.25, -3.93 -5.26, -0.44 -0.52" stroke="#0b7285" stroke-width="1" fill="none"></path></g></g><g stroke-linecap="round" transform="translate(393.0401594800155 190.5924667675481) rotate(0 6.093189964157716 6.1827956989247355)"><path d="M4.13 -0.26 C5.02 -0.94, 6.2 -0.68, 7.33 -0.13 C8.45 0.42, 10.22 1.76, 10.9 3.04 C11.59 4.33, 11.51 6.23, 11.45 7.58 C11.39 8.92, 11.36 10.21, 10.54 11.1 C9.72 12, 8 13.07, 6.53 12.94 C5.06 12.81, 2.63 11.11, 1.71 10.34 C0.79 9.57, 1.18 9.58, 1.01 8.32 C0.85 7.05, 0.22 3.99, 0.73 2.77 C1.23 1.55, 3.31 1.27, 4.03 1.01 C4.75 0.75, 4.91 1.17, 5.05 1.23 M5.79 0.83 C7.43 0.93, 9.65 1.39, 10.8 2.19 C11.95 3, 12.6 4.72, 12.67 5.65 C12.75 6.58, 11.89 6.98, 11.24 7.76 C10.59 8.54, 9.63 9.67, 8.76 10.34 C7.88 11, 7.33 11.82, 6.01 11.75 C4.69 11.67, 1.61 11.07, 0.83 9.89 C0.06 8.72, 1.43 5.86, 1.37 4.68 C1.31 3.5, -0.06 3.38, 0.47 2.81 C1.01 2.25, 3.79 1.77, 4.58 1.3 C5.37 0.83, 5.19 0.02, 5.22 0.02" stroke="#0b7285" stroke-width="1" fill="none"></path></g><g stroke-linecap="round"><g transform="translate(398.5644506611234 184.85208272180535) rotate(0 0.2468302165237901 -23.09568573296869)"><path d="M0.78 -0.31 C0.97 -7.9, 0.62 -36.97, 0.51 -44.38 M-0.27 -1.52 C-0.17 -8.9, -0.27 -38.34, -0.34 -45.88" stroke="#0b7285" stroke-width="1" fill="none"></path></g></g><g stroke-linecap="round"><g transform="translate(398.67333429200335 184.62775883165864) rotate(0 -4.591824923569902 -22.368152808382945)"><path d="M1.16 0.99 C-0.06 -0.93, -4.49 -6.81, -6.29 -11.57 C-8.09 -16.33, -9.28 -23.3, -9.62 -27.55 C-9.95 -31.79, -9.95 -34.02, -8.3 -37.03 C-6.65 -40.05, -1.01 -44.28, 0.28 -45.64 M0.31 0.47 C-1.09 -1.84, -5.08 -9.05, -6.85 -13.54 C-8.62 -18.02, -10.04 -22.18, -10.29 -26.44 C-10.55 -30.69, -9.87 -35.86, -8.37 -39.07 C-6.86 -42.29, -2.73 -44.5, -1.27 -45.73" stroke="#0b7285" stroke-width="1" fill="none"></path></g></g><g stroke-linecap="round"><g transform="translate(404.4975101161792 139.57281377671416) rotate(0 1.0642584893693652 23.67661390766267)"><path d="M1 0.48 C1.62 1.91, 3.52 4.8, 4.53 7.47 C5.55 10.13, 7.47 12.26, 7.08 16.48 C6.68 20.69, 3.98 27.57, 2.17 32.76 C0.36 37.96, -2.73 45.52, -3.78 47.66 M0.07 -0.31 C0.96 1.38, 5.56 5.91, 6.62 8.83 C7.69 11.75, 7.15 13, 6.45 17.22 C5.76 21.43, 4.38 29.48, 2.46 34.11 C0.53 38.74, -4.23 42.74, -5.09 45.01" stroke="#0b7285" stroke-width="1" fill="none"></path></g></g><g stroke-linecap="round"><g transform="translate(405.70630132497035 139.46292366682405) rotate(0 4.086013353780686 23.116540218226874)"><path d="M-0.53 0.67 C0.71 1.08, 5.84 1.22, 8.13 3.42 C10.41 5.61, 12.6 10.1, 13.18 13.84 C13.75 17.58, 12.34 22.61, 11.58 25.87 C10.82 29.13, 11.1 30.35, 8.63 33.39 C6.16 36.44, -1.17 42.14, -3.25 44.13 M1.39 -0.02 C2.45 0.44, 5.65 2.56, 7.47 4.56 C9.28 6.55, 11.65 8.77, 12.29 11.96 C12.93 15.14, 12.1 20.56, 11.33 23.68 C10.56 26.8, 10.39 26.93, 7.65 30.7 C4.91 34.46, -3.33 44.02, -5.13 46.26" stroke="#0b7285" stroke-width="1" fill="none"></path></g></g><g stroke-opacity="0" fill-opacity="0" stroke-linecap="round" transform="translate(10 486.51227276203633) rotate(0 16.538461538461547 12.019230769230774)"><path d="M6.01 0 M6.01 0 C10.32 -1.54, 14.49 0.58, 27.07 0 M6.01 0 C10.33 -0.37, 17.09 0.42, 27.07 0 M27.07 0 C30.44 1.73, 33.53 1.54, 33.08 6.01 M27.07 0 C29.44 1.41, 31.01 0.77, 33.08 6.01 M33.08 6.01 C33.45 11.79, 32.6 16.63, 33.08 18.03 M33.08 6.01 C33.69 9.62, 32.92 13.98, 33.08 18.03 M33.08 18.03 C35.05 21.04, 29.09 22.95, 27.07 24.04 M33.08 18.03 C30.91 20.27, 29.11 25.81, 27.07 24.04 M27.07 24.04 C23.35 26.1, 15.31 24.06, 6.01 24.04 M27.07 24.04 C23.48 23.33, 18.63 23.7, 6.01 24.04 M6.01 24.04 C2.93 22.69, 0.33 20.97, 0 18.03 M6.01 24.04 C2.59 23.31, -0.99 21.41, 0 18.03 M0 18.03 C-0.9 14.45, -0.41 9.28, 0 6.01 M0 18.03 C0.15 14.3, 0.29 9.15, 0 6.01 M0 6.01 C-0.05 0.42, 0.52 -1.24, 6.01 0 M0 6.01 C-0.43 1.01, 2.86 -1.65, 6.01 0" stroke="#000000" stroke-width="1" fill="none"></path></g><g stroke-linecap="round"><g stroke-opacity="0" fill-opacity="0" transform="translate(553.8888888888891 11.163286135345686) rotate(0 26.12571667606619 50.35855928618048)"><path d="M-0.9 -1.16 C7.8 15.99, 44.21 84.83, 53.15 101.88 M0.83 0.84 C9.26 17.75, 43.64 83.22, 52.1 100.16" stroke="#000000" stroke-width="1" fill="none"></path></g></g><g stroke-linecap="round"><g transform="translate(350.4507674421145 232.69384142833235) rotate(0 -56.242907716166144 68.78855604337343)"><path d="M0.7 -1.15 C-17.91 21.9, -93.62 114.01, -112.78 137.22 M-0.39 0.86 C-18.96 24.2, -94.04 116.17, -113.19 138.73" stroke="#0b7285" stroke-width="1" fill="none"></path></g><g transform="translate(350.4507674421145 232.69384142833235) rotate(0 -56.242907716166144 68.78855604337343)"><path d="M-105.01 112.2 C-105.49 115.54, -106.07 120.47, -111.85 140.24 M-103.44 111.41 C-107.58 121.47, -109.4 130.25, -114.1 139.19" stroke="#0b7285" stroke-width="1" fill="none"></path></g><g transform="translate(350.4507674421145 232.69384142833235) rotate(0 -56.242907716166144 68.78855604337343)"><path d="M-89.21 125.31 C-92.81 126.05, -96.61 128.31, -111.85 140.24 M-87.65 124.52 C-97.53 129.76, -105.04 133.83, -114.1 139.19" stroke="#0b7285" stroke-width="1" fill="none"></path></g></g><g stroke-linecap="round"><g transform="translate(385.52318026527587 235.72659825026494) rotate(0 -21.32971736861481 64.791829240553)"><path d="M0.89 0.41 C-6.52 22.09, -36.36 108.67, -43.55 130.01 M-0.1 -0.43 C-7.22 20.94, -34.23 106.73, -41.34 128.37" stroke="#0b7285" stroke-width="1" fill="none"></path></g><g transform="translate(385.52318026527587 235.72659825026494) rotate(0 -21.32971736861481 64.791829240553)"><path d="M-41.82 96.8 C-40.55 110.24, -42.68 121.42, -41.21 128.77 M-43.26 98.75 C-41.91 107.05, -41.84 113.3, -41.27 127.57" stroke="#0b7285" stroke-width="1" fill="none"></path></g><g transform="translate(385.52318026527587 235.72659825026494) rotate(0 -21.32971736861481 64.791829240553)"><path d="M-22.28 103.07 C-28.32 114.31, -37.78 123.14, -41.21 128.77 M-23.72 105.02 C-27.48 111.86, -32.46 116.48, -41.27 127.57" stroke="#0b7285" stroke-width="1" fill="none"></path></g></g><g stroke-linecap="round"><g transform="translate(412.3327040747996 236.0599315835983) rotate(0 25.52233199636379 68.65077267006154)"><path d="M0.44 -0.06 C9.27 22.89, 43.42 115.32, 51.83 138.44 M-0.79 -1.14 C8.03 21.38, 42.64 113.54, 51.09 136.51" stroke="#0b7285" stroke-width="1" fill="none"></path></g><g transform="translate(412.3327040747996 236.0599315835983) rotate(0 25.52233199636379 68.65077267006154)"><path d="M31.53 114.32 C36.32 117.38, 40.65 124.01, 52.67 135.96 M32.28 114.44 C37.15 120, 40.83 124.55, 50.33 136.77" stroke="#0b7285" stroke-width="1" fill="none"></path></g><g transform="translate(412.3327040747996 236.0599315835983) rotate(0 25.52233199636379 68.65077267006154)"><path d="M50.76 107.15 C51.7 111.73, 52.15 119.81, 52.67 135.96 M51.51 107.27 C51.31 114.8, 49.95 121.23, 50.33 136.77" stroke="#0b7285" stroke-width="1" fill="none"></path></g></g><g stroke-linecap="round"><g transform="translate(444.88032312241864 233.46469348836024) rotate(0 63.064565179879196 65.73852625123112)"><path d="M0.51 0.49 C21.24 22.58, 103.63 110.04, 124.42 131.78 M-0.68 -0.3 C20.44 21.52, 105.93 107.98, 126.8 130.07" stroke="#0b7285" stroke-width="1" fill="none"></path></g><g transform="translate(444.88032312241864 233.46469348836024) rotate(0 63.064565179879196 65.73852625123112)"><path d="M100.63 115.94 C109.33 121.2, 116.23 124.48, 124.97 131.92 M100.78 116.16 C108.2 121.55, 115.83 125.14, 127.7 130.78" stroke="#0b7285" stroke-width="1" fill="none"></path></g><g transform="translate(444.88032312241864 233.46469348836024) rotate(0 63.064565179879196 65.73852625123112)"><path d="M115.36 101.65 C119.45 111.37, 121.81 119.04, 124.97 131.92 M115.51 101.87 C118.62 111.43, 121.92 119.23, 127.7 130.78" stroke="#0b7285" stroke-width="1" fill="none"></path></g></g><g transform="translate(325.7818357357471 101.29639756754159) rotate(0 72 12.5)"><text x="0" y="18" font-family="Virgil, Segoe UI Emoji" font-size="20px" fill="#0b7285" text-anchor="start" style="white-space: pre;" direction="ltr">4 base regions</text></g><g transform="translate(209.59613775443484 261.5688464586883) rotate(308.4788280207379 70 12.5)"><text x="0" y="18" font-family="Virgil, Segoe UI Emoji" font-size="20px" fill="#0b7285" text-anchor="start" style="white-space: pre;" direction="ltr">EWR * primary</text></g><g transform="translate(333.2818357357471 289.4213975675416) rotate(295.49755149333777 20 12.5)"><text x="0" y="18" font-family="Virgil, Segoe UI Emoji" font-size="20px" fill="#0b7285" text-anchor="start" style="white-space: pre;" direction="ltr">MIA</text></g><g transform="translate(433.9068357357471 299.1088975675416) rotate(72.6039799306191 19 12.5)"><text x="0" y="18" font-family="Virgil, Segoe UI Emoji" font-size="20px" fill="#0b7285" text-anchor="start" style="white-space: pre;" direction="ltr">LAX</text></g><g transform="translate(499.5318357357471 289.4213975675416) rotate(48.01278750418333 22.5 12.5)"><text x="0" y="18" font-family="Virgil, Segoe UI Emoji" font-size="20px" fill="#0b7285" text-anchor="start" style="white-space: pre;" direction="ltr">ORD</text></g><g stroke-linecap="round"><g transform="translate(231.87525424264197 373.0495669609559) rotate(0 -14.862058412245517 40.808182259328476)" fill-rule="evenodd"><path d="M-62.31 14.74 C-62.31 14.74, -62.31 14.74, -62.31 14.74 M-62.31 14.74 C-62.31 14.74, -62.31 14.74, -62.31 14.74 M-63.61 22.04 C-60.12 17.85, -58.1 15.32, -55.89 13.85 M-62.76 21.35 C-59.97 18.22, -57.91 15.71, -55.76 12.72 M-61.23 26.72 C-59.62 22.98, -56.09 18.62, -49.86 10.03 M-62.56 26.57 C-58.24 23.01, -55.97 18.84, -47.55 11.52 M-64.53 35.69 C-58.67 26.18, -52.58 22.54, -42 10.8 M-62.5 33.78 C-57.92 28.82, -53.29 22.05, -42.33 8.09 M-63.84 38.71 C-52.51 29.31, -45.59 21.29, -34.4 8.12 M-63.55 39.84 C-54.64 28.87, -45.31 19.45, -33.65 6.15 M-63.43 45.18 C-48.86 31.38, -35.53 14.41, -25.8 5.37 M-62.38 46.45 C-48.18 29.38, -35.51 13.74, -26.53 5.03 M-64.29 52.26 C-46.66 31.58, -28.32 14.62, -20.45 1.06 M-63.58 52.77 C-52.08 39.23, -42.93 28.21, -20.41 1.64 M-64.01 58.98 C-42.66 35.38, -24.73 15.2, -14.1 0.22 M-63.78 58.84 C-45.2 36.37, -26.36 16.47, -13.37 1.07 M-63.27 62.9 C-45.95 43.64, -27.2 24.74, -9.1 0.29 M-62.28 63.33 C-43.28 42.02, -26.21 20.67, -9.36 1.6 M-57.1 64.96 C-42.35 45.54, -24.77 26.92, -4.4 1.91 M-58.57 65.63 C-45.51 49.91, -32.06 35.06, -4.41 2.79 M-55.32 64.87 C-37.13 48.1, -22.84 30.55, 1.32 2.9 M-54.89 66.42 C-37 48.72, -20.3 29.12, 0.02 4.52 M-48.57 67.98 C-36.24 50.02, -24.08 35.86, 1.79 8.33 M-50.44 67.7 C-37.35 53.38, -26.1 40.27, 3.07 6.34 M-47.38 71.15 C-25.63 47.92, -7.44 24.58, 6.57 8.41 M-46.72 69.89 C-31.2 51.11, -13.76 32.6, 7.6 8.51 M-44.14 70.12 C-26.19 52.15, -8.77 32.46, 9.85 8.37 M-43.6 72.34 C-27.29 53.25, -12.7 36.59, 10.95 9.07 M-36.96 73.63 C-22.23 53.21, -6.09 32.09, 13.93 10.3 M-39.41 72.7 C-20.47 52.37, -3.04 32.35, 16.07 10.88 M-33.47 73.59 C-21.63 58.13, -7.86 44.04, 17.98 11.09 M-34.93 74.22 C-19.78 56.58, -3.79 37.69, 18.23 12.72 M-32.78 76.39 C-19.68 63.56, -8.63 48.96, 21.5 12.23 M-31.52 76.26 C-18.52 61.18, -5.35 48.08, 24.21 14.33 M-25.34 77.05 C-11.97 60.77, 3.52 42.44, 25.17 13.75 M-27.16 77.67 C-11.75 58.85, 5.18 39.53, 26.99 15.47 M-24.76 77.41 C-5.09 60.59, 9.59 42.55, 30.21 16.04 M-22.51 80.08 C-6.97 62.12, 8.46 43.61, 30.91 16.99 M-17.76 81.37 C-10.04 68.19, 2.4 55.19, 35.27 17.79 M-18.96 80.45 C-5.15 63.23, 11.61 44.31, 34.4 17.88 M-16.65 81.9 C-3.98 70.79, 4.45 56.4, 35.19 23.07 M-15.4 83.12 C-4.24 70.43, 7.09 57.67, 34.54 25.65 M-7.99 78.79 C6.23 61.44, 21.72 46.29, 37.01 29.92 M-6.98 78.9 C7.24 62.17, 23.87 45.32, 34.85 29.98 M-0.22 74.42 C7.54 68.38, 18.48 55.77, 36.29 38.03 M1.04 75.9 C13.39 60.06, 28.47 44.13, 35.47 37.72 M7.59 74.54 C15.79 66.06, 21.31 58.45, 35.08 43.63 M8.33 73.58 C17.58 61.73, 28.9 50.97, 34.94 42.84 M17.89 70.37 C22.17 62.7, 25.22 57.25, 33.48 50.31 M17.47 70.01 C19.59 64.75, 24.3 61.74, 33.51 50.53 M24.2 67.74 C26.42 63.54, 27.75 63.18, 32.82 56.19 M25.05 68.05 C27.92 63.47, 31.78 59.34, 33.86 55.68" stroke="#be4bdb" stroke-width="0.5" fill="none"></path><path d="M-10.7 -0.46 C-23.38 4.8, -35.67 6.32, -63.64 13.52 M-10.16 0.53 C-31.61 5.06, -50.69 11.64, -62.71 15.57 M-63.34 13.53 C-62.71 26.02, -64.71 40.24, -63.17 63.98 M-62.03 14.28 C-62.45 34.36, -62.87 51.43, -62.3 62.69 M-63 62.54 C-46.29 69.14, -27.28 78.63, -17.44 82.16 M-63.15 62.88 C-53.07 66.78, -41.77 70.81, -16.79 81.26 M-17.22 82.38 C-2.08 75.22, 16.26 69.95, 30.69 60.65 M-16.75 81.97 C-0.69 74.74, 14.28 67.55, 32.5 61.18 M33.85 62.43 C31.85 46.09, 32.88 32.29, 31.31 15.99 M31.74 61.83 C32.09 50.77, 32.7 40.47, 34.01 16.08 M34.04 16.99 C16.67 11.66, 0.28 5.17, -11.29 1.37 M33.15 15.96 C23.38 13, 13.38 9.14, -11.09 -0.77 M-10.86 0 C-10.86 0, -10.86 0, -10.86 0 M-10.86 0 C-10.86 0, -10.86 0, -10.86 0" stroke="#881fa3" stroke-width="1" fill="none"></path></g></g><g transform="translate(180.02165746779133 402.45346885994195) rotate(0 36 12.5)"><text x="0" y="18" font-family="Virgil, Segoe UI Emoji" font-size="20px" fill="#0b7285" text-anchor="start" style="white-space: pre;" direction="ltr">dov.dev</text></g><g stroke-linecap="round"><g transform="translate(344.13444611331033 373.3699996010823) rotate(0 -4.693786076356901 40.96809685067814)" fill-rule="evenodd"><path d="M-51.53 14.83 C-51.53 14.83, -51.53 14.83, -51.53 14.83 M-51.53 14.83 C-51.53 14.83, -51.53 14.83, -51.53 14.83 M-50.86 22.29 C-50.05 18.59, -46.51 14.68, -45.17 13.12 M-51.51 21.07 C-49.16 17.81, -47 14.89, -44.69 13.08 M-51.86 28.83 C-47.78 22.97, -42.41 17.81, -37.31 9.7 M-52.5 27.74 C-49.24 24.05, -45.4 18.61, -38.37 10.94 M-52.18 32.09 C-44.18 24.8, -38.95 15.89, -30.4 7.39 M-51.64 33.33 C-43.83 24.56, -36.91 15.2, -31.4 8.41 M-52.09 39.18 C-45.96 32.44, -36.27 24.93, -21.8 5.94 M-52.12 39.61 C-43.8 30.56, -36.47 20.07, -23.97 6.47 M-51.76 44.46 C-38.99 30.85, -27.14 15.62, -16.3 4.46 M-53.14 46.81 C-43.73 36.53, -34.89 25.99, -16.42 4.42 M-50.94 53.33 C-38.81 38.3, -27.39 22.33, -8.55 0.95 M-52.36 51.59 C-35.23 31.92, -17.89 12.84, -9.53 2.49 M-53.56 56.55 C-33.48 37.5, -17.12 13.73, -3.54 -0.86 M-52.64 58.52 C-35.3 38.1, -19.31 19.87, -3.13 -0.04 M-50.89 63.65 C-33.97 45, -17.42 24.69, 3.52 2.71 M-51.43 62.76 C-30.51 39.34, -8.82 16.04, 1.8 2.45 M-48.84 63.8 C-30.52 46.86, -12.18 25.19, 4.58 2.79 M-48.23 63.98 C-27.98 44.8, -11.4 24.58, 6.33 4.7 M-44.33 65.19 C-25.95 46.46, -7.81 24.32, 11.6 3.9 M-43.17 67.09 C-27.94 48.28, -11.86 30.19, 10.26 5.68 M-39.32 65.88 C-25.18 51.54, -8.86 34.54, 12.72 6.11 M-39.22 68.15 C-26.54 50.88, -12.53 34.88, 14.08 5.88 M-35.97 67.73 C-22.72 51.81, -4.91 32.98, 19.63 6.85 M-35.49 69.54 C-15.81 45.15, 6.42 21.53, 18.15 8.39 M-30.52 71.69 C-18.62 57.02, -5.77 40.08, 20.45 10.81 M-31.39 72.43 C-16.66 54.64, -1.96 37.4, 21.41 9.95 M-29.17 71.98 C-6.02 49.95, 12.93 29.48, 27.1 11.83 M-28.63 72.17 C-7.9 51.11, 11.81 28.22, 26.56 9.99 M-23.9 74.23 C-6.93 53.33, 9.7 33.9, 28.17 10.77 M-23.23 73.58 C-8.69 57.19, 7.96 38.32, 30.72 11.74 M-17.79 74.07 C-5.75 57.25, 9.25 42.86, 32.3 13.34 M-19.05 74.72 C0.18 54.23, 18.67 31.4, 34.67 13.27 M-16.08 79 C2.25 59.06, 17.49 40.05, 37.06 16.05 M-15.06 78.02 C2.47 54.85, 21.35 34.79, 37.49 16.53 M-11.53 79.06 C4.97 60.64, 23.33 40.78, 40.32 16.02 M-12.82 80.06 C-2.07 66.09, 10.28 54.76, 41.78 16.44 M-8.2 80.91 C9.98 62.33, 24.68 39.14, 45.13 16.91 M-8.49 80.85 C4.36 66.7, 15.65 51.98, 46.32 17.96 M-5.32 81.97 C16.6 61.95, 32.98 38.34, 47.14 23.26 M-4.9 83.21 C10.84 63.98, 25.85 46.87, 45.33 23.64 M4.69 81.28 C22.02 59.43, 35.87 40.6, 47.33 28.85 M4.28 78.77 C14.91 68.08, 25.89 54.13, 44.99 31.15 M12.61 75.18 C24.71 61.3, 34.85 47.21, 46.85 36.86 M10.72 76.83 C22.9 62.97, 35.44 50.09, 46.13 36.65 M20.37 73.89 C23.91 66.73, 32.06 58.05, 46.51 42.21 M19.16 74.17 C28.56 64.98, 36.77 54.32, 45.49 44.29 M27.79 68.63 C35.88 64.6, 39.93 54.96, 45.56 50.74 M28.05 69.31 C31.61 65.67, 34.69 62.5, 44.34 50.61 M34.66 68.18 C38.32 62.02, 41.62 59.95, 44.13 55.42 M35.15 66.87 C38.9 63.17, 43.68 58.5, 44.53 55.74" stroke="#be4bdb" stroke-width="0.5" fill="none"></path><path d="M0.95 1.99 C-16.85 4.6, -32.06 10.11, -50.58 16.88 M-0.06 -0.05 C-19.42 5.84, -37.03 10.45, -52.46 14.52 M-50.91 16.49 C-53.26 30.55, -50.8 48.58, -54.15 63.88 M-51.23 15.66 C-52.83 30.89, -52.13 46.12, -52.53 62.85 M-50.66 60.49 C-43.02 66.89, -29.82 71.06, -5.48 81.61 M-52.32 61.5 C-39.46 67.96, -26.18 72.93, -7.05 81.56 M-5.44 82.78 C11.39 74.24, 27.82 66.26, 42.7 61.91 M-6.22 81.05 C5.9 76.76, 18.42 71.26, 42.17 61.4 M44.76 61.97 C42.96 47.92, 43.16 32.5, 42.39 16.78 M42.15 62.44 C43.67 47.51, 44.67 35.23, 43.16 16.7 M43.66 17.84 C36.1 14.87, 24.99 10.66, -0.47 -0.84 M44.21 16.84 C28.63 10.91, 14.89 5.39, 0.85 -0.72 M0 0 C0 0, 0 0, 0 0 M0 0 C0 0, 0 0, 0 0" stroke="#881fa3" stroke-width="1" fill="none"></path></g></g><g transform="translate(301.26561249780116 400.2739015000684) rotate(0 36 12.5)"><text x="0" y="18" font-family="Virgil, Segoe UI Emoji" font-size="20px" fill="#0b7285" text-anchor="start" style="white-space: pre;" direction="ltr">dov.dev</text></g><g stroke-linecap="round"><g transform="translate(466.63444611331033 377.1199996010823) rotate(0 -3.8209541729588636 40.56713518431019)" fill-rule="evenodd"><path d="M-51.53 14.83 C-51.53 14.83, -51.53 14.83, -51.53 14.83 M-51.53 14.83 C-51.53 14.83, -51.53 14.83, -51.53 14.83 M-51.5 21.58 C-50.16 18.91, -48.83 17.53, -44.92 12.42 M-51.47 21.43 C-50.71 19.5, -48.63 17.9, -44.7 12.81 M-53.08 28.76 C-49.86 24.14, -46.48 19.87, -36.72 12.5 M-52.28 28.15 C-45.94 21.11, -41.17 15.24, -37.3 10.61 M-50.32 32.96 C-47.98 28.73, -44.41 23.23, -30.81 7.63 M-52.28 33.46 C-46.35 25.25, -38.6 19.08, -30.61 9.28 M-52.11 38.31 C-43.76 33.21, -37.04 24.43, -22.51 6.04 M-50.97 40.17 C-43.95 31.65, -38.38 23.57, -23.56 7.04 M-50.72 47.2 C-40 31.75, -31.22 20.68, -15.08 2.59 M-51.81 46.99 C-43.97 36.11, -34.69 27.52, -17.01 4.23 M-52.29 53.7 C-37.54 37.01, -23.68 22.08, -8.18 3.93 M-51.52 51.62 C-41.25 38.26, -29.4 24.21, -8.94 2.59 M-51.71 56.15 C-31.44 33.89, -13.97 12.39, -0.58 1.63 M-51.68 57.23 C-39 42.23, -26.14 28.82, -1.91 0.28 M-49.99 64.87 C-31.36 39.35, -13.82 17, 3.67 0.59 M-51.01 63.84 C-33.09 42.13, -13.54 20.22, 1.95 2.04 M-47.78 65.17 C-30.6 44.85, -15.34 24.8, 6.4 4.83 M-47.69 65.29 C-29.08 45.21, -12.06 24.24, 5.26 2.81 M-44.07 67.09 C-28.66 51.18, -18.55 33.88, 9.9 5.7 M-42.82 66.72 C-32.95 54.23, -21.82 40.39, 9.21 5.75 M-40.44 66.45 C-26.12 56.08, -16.77 41.52, 14.88 6.24 M-39.52 67.42 C-24.18 52.2, -10.36 35.71, 14.63 6.41 M-34.41 69 C-15.62 44.23, 5.31 23.87, 17.54 9.26 M-35.1 68.84 C-16.6 45.88, 2.78 24.45, 18.31 8.65 M-31.65 72.03 C-20.26 58.62, -9.13 45.28, 20.2 9.52 M-32.06 71.98 C-18.64 58.95, -8.3 44.21, 22.83 10.6 M-28.08 72.77 C-13.06 55.78, 3.7 33.62, 24.48 9.83 M-27 73.6 C-8.6 51.39, 10.25 29.61, 26.84 10.56 M-23.94 72.74 C-6.78 54.1, 13.05 35.03, 29.85 13.17 M-23.53 74.39 C-7.57 57.93, 7.06 39.46, 28.89 12.98 M-19.34 74.63 C-3.07 56.04, 14.89 35.12, 34.83 14.8 M-20.61 75.7 C-1.01 55.18, 16.64 34.77, 33.77 14.36 M-15.61 78.44 C6.48 53.14, 27 30.17, 39.53 14.46 M-16.73 77.42 C-3.76 64.72, 6.77 52.74, 38.26 15.22 M-10.89 78.36 C-0.39 63.26, 13.93 50.7, 42.87 16.37 M-12.27 78.72 C0.35 64.75, 13.16 50.51, 41.5 16.03 M-6.13 79.1 C9.31 65.33, 23.56 48.72, 45.13 17.49 M-8.38 80.19 C6.77 64.57, 20.92 46.67, 46.78 19.13 M-3.29 84.33 C10.69 68.21, 21.18 53.78, 45.16 24.08 M-3.93 82.06 C6.62 68.38, 18.85 55.83, 45.9 25.2 M2.51 81.7 C15.39 66.92, 28 49.79, 46.83 30.25 M3.46 79.12 C16.26 65.29, 29.09 51.61, 46.84 31.63 M13 76.88 C21.71 65.99, 28.01 57.2, 47.68 36.49 M10.73 76.43 C21.9 65.25, 30.59 53.55, 45.53 36.78 M20.54 72.29 C30.46 59.95, 42.21 48.29, 44.11 42.16 M20.21 74 C29.45 62.05, 38.42 51.29, 46.3 44.39 M28.61 68.55 C31.45 62.94, 38.13 58.19, 43.9 50.96 M27.39 69.96 C31 66.78, 35.2 61.49, 45.58 50.77 M35.31 67.51 C40.52 62.15, 41.68 58.57, 45.74 56.78 M35.5 67.49 C37.83 63.35, 41.15 61.01, 44.92 56.6" stroke="#be4bdb" stroke-width="0.5" fill="none"></path><path d="M-1.13 -0.69 C-14.51 5.65, -26.91 5.81, -52.08 15.19 M-0.2 -0.52 C-14.1 4.02, -27.48 7.99, -51.6 15.51 M-50.56 15.74 C-53.24 28.97, -50.78 41.28, -52.63 61.12 M-52.12 14.73 C-51.42 25.88, -52.18 35.9, -51.5 61.29 M-51.57 61.48 C-38.32 70.43, -22.3 74.33, -5.08 80.41 M-52.26 61.49 C-36.58 68.03, -19.34 75.64, -6.92 81.83 M-8.04 80.61 C12.56 73.09, 34.27 67.27, 44.99 61.66 M-6.01 81.74 C12.53 74.48, 29.96 66.52, 42.43 61.95 M41.21 63.45 C42.2 51.13, 43.27 40.4, 42.44 18.31 M42.27 62.72 C43 49.05, 44.25 35.11, 43.92 16.69 M44.83 16.15 C32 12.86, 19.92 7.69, 1.49 -0.37 M44.81 16.34 C29.04 10.68, 15.47 6.06, 0.11 0.06 M0 0 C0 0, 0 0, 0 0 M0 0 C0 0, 0 0, 0 0" stroke="#881fa3" stroke-width="1" fill="none"></path></g></g><g transform="translate(423.76561249780116 404.0239015000684) rotate(0 36 12.5)"><text x="0" y="18" font-family="Virgil, Segoe UI Emoji" font-size="20px" fill="#0b7285" text-anchor="start" style="white-space: pre;" direction="ltr">dov.dev</text></g><g stroke-linecap="round"><g transform="translate(581.0094461133103 373.9949996010823) rotate(0 -4.057983199102978 40.49573897314798)" fill-rule="evenodd"><path d="M-51.53 14.83 C-51.53 14.83, -51.53 14.83, -51.53 14.83 M-51.53 14.83 C-51.53 14.83, -51.53 14.83, -51.53 14.83 M-52.35 21.87 C-49.39 18.22, -47.44 16.89, -43.95 13.39 M-51.51 20.69 C-50.48 18.98, -48.93 17.69, -44.07 12.67 M-53.89 26.97 C-48.26 21.67, -46.73 19.69, -36.39 11.64 M-51.57 28.27 C-47.98 23.17, -42.87 18.34, -38.46 10.75 M-51.25 33.15 C-44.4 26.57, -39.65 21.39, -32.62 10.05 M-50.86 33.71 C-47.17 27.3, -42.59 22.88, -31.54 8.6 M-51.37 38.74 C-44.25 33.5, -37.62 26.54, -21.18 6.89 M-51.16 39.03 C-43.45 31.63, -36.77 22.06, -22.21 6.04 M-52.58 46.41 C-39.38 31.8, -25.57 16.68, -15.79 4.34 M-51.89 46.61 C-40.7 33.16, -30.45 20.9, -15.67 5.15 M-53.56 50.61 C-40.11 37.94, -27.41 21.56, -8.79 4.18 M-52.57 52.89 C-40.59 39.51, -27.89 25.47, -9.16 2.57 M-53.92 59.9 C-38.01 40.4, -19.4 21.21, -3.59 2.72 M-51.52 57.87 C-33.91 36.12, -14.41 15.25, -2.62 1.62 M-49.38 62.38 C-30.82 40.3, -13.03 20.52, 1.42 0.92 M-51.31 63.71 C-38.26 49.3, -26.54 35.72, 1.27 1.58 M-47.01 66.51 C-37.96 53.28, -27.28 40.5, 6.26 3.97 M-48.14 64.77 C-31.88 45.46, -15.98 27.69, 6.21 4.47 M-41.65 68.54 C-22.72 45.46, -4.75 20.15, 10.22 3.22 M-44.49 66.24 C-21.49 41.8, -1.17 19.1, 11.04 4.17 M-37.97 67.33 C-19.04 46.55, -1.76 23.69, 11.99 6.27 M-39.31 68.09 C-24.33 49.11, -8.34 31.96, 13.65 7.71 M-37.53 70.3 C-14.55 45.01, 7.67 21.9, 17.09 6.85 M-35.31 70.22 C-17.1 47.95, 0.43 26.99, 18.17 8.34 M-32.77 72.7 C-17.23 55.97, -6.54 41.85, 22.72 10.72 M-31.12 70.98 C-17.54 53.11, -2 34.9, 21.7 10.58 M-26.8 71.81 C-15.63 58.26, -2.72 43.48, 25.1 9.53 M-27.29 72.5 C-14.89 57.32, -1.38 41.56, 25.46 11.27 M-25.3 73.07 C-12.21 58.32, -0.21 47.26, 28.4 14.67 M-24.32 73.99 C-4.84 52.05, 14.2 28.19, 29.48 12.69 M-17.77 76.64 C1.37 49.03, 24.37 27.58, 36.08 15.17 M-20.17 75.58 C-1.15 54.14, 18.32 32.23, 33.82 13.55 M-16.63 79.36 C-5.11 65.42, 5.59 50.7, 39.79 15.6 M-15.53 77.34 C3.21 56.44, 21.81 33.91, 37.21 16.09 M-10.57 81.3 C2.72 60.55, 21.07 43.44, 42.71 17.88 M-11.3 79.12 C5.35 59.33, 23.02 38.5, 42.26 17.15 M-8.33 79.92 C13.79 56.52, 32.5 37.46, 44.46 19.22 M-8.62 79.87 C4.03 66.55, 14.73 54.38, 46.17 19.22 M-2.58 84.22 C6.92 69.16, 15.76 59.01, 44.52 22.48 M-4.92 82.94 C7.8 67, 21.3 52.75, 45.94 24.01 M4.1 81.52 C21.05 63.44, 36.43 42.59, 46.93 32.47 M3.91 80.11 C14.92 66.65, 27.11 53.25, 46.9 29.98 M11.55 77.23 C17.73 67.36, 29.28 56.89, 47.16 36.18 M11.69 76.46 C23.17 64.3, 33.05 52.63, 45.39 37.68 M18.01 75.38 C26.63 64.65, 34.56 55.98, 43.6 45.11 M19.69 74.2 C28.92 62.8, 37.71 54.39, 46.09 43.32 M26.9 69.72 C31.53 65.86, 35.55 62.2, 44.3 50.38 M27.27 70.86 C33.34 65.3, 37.27 58.27, 44.5 49.08 M36.16 65.5 C38.45 64.22, 41.42 58.12, 45.08 55.14 M35.36 67.48 C37.57 65, 39.27 61.75, 44.97 56.19" stroke="#be4bdb" stroke-width="0.5" fill="none"></path><path d="M-1.21 -0.07 C-17.33 5.96, -33.62 7.12, -50.25 14.34 M-0.83 0.82 C-15.21 4.13, -29.85 8.08, -50.98 14.56 M-52.05 15.08 C-52.54 33.47, -51.98 51.31, -52.84 61.61 M-50.96 14.85 C-51.97 31.19, -52.22 46.53, -52.65 61.51 M-52.09 62.33 C-42.87 65.32, -31.43 72.78, -6.6 79.45 M-51.82 61.87 C-34.53 69.42, -16.55 77.8, -6.31 81.89 M-7.86 80.01 C9.63 73.93, 28.96 68.45, 41.56 59.99 M-5.87 81 C9.54 75.58, 23.47 69.01, 44 62.62 M44.44 61.03 C42.17 48.9, 43.36 39.35, 44.72 16.29 M42.72 61.52 C42.76 49.69, 43.02 37.72, 44.46 15.81 M43.62 16.24 C28.88 10.33, 16.04 5.75, 1.13 -0.9 M44.54 17.41 C32.11 12.21, 18.17 6.5, 0.52 0.7 M0 0 C0 0, 0 0, 0 0 M0 0 C0 0, 0 0, 0 0" stroke="#881fa3" stroke-width="1" fill="none"></path></g></g><g transform="translate(538.1406124978012 400.8989015000684) rotate(0 36 12.5)"><text x="0" y="18" font-family="Virgil, Segoe UI Emoji" font-size="20px" fill="#0b7285" text-anchor="start" style="white-space: pre;" direction="ltr">dov.dev</text></g><g stroke-linecap="round"><g transform="translate(326.2716574677909 626.2459860600543) rotate(0 -54.35414465606675 1.500679916829199)"><path d="M-0.2 0.83 C-12.38 2.79, -55.69 13.94, -73.56 12.33 C-91.44 10.72, -102.02 -5.03, -107.44 -8.84 M-1.76 0.21 C-14.05 2.27, -56.62 15.25, -74.41 13.45 C-92.2 11.66, -103.33 -6.71, -108.51 -10.57" stroke="#c92a2a" stroke-width="1" fill="none"></path></g><g transform="translate(326.2716574677909 626.2459860600543) rotate(0 -54.35414465606675 1.500679916829199)"><path d="M-89.01 -1.35 C-96.48 -4.97, -97.96 -5.07, -109.4 -10.34 M-90.93 -2.41 C-94.74 -3.55, -98.56 -6.08, -108.77 -11.16" stroke="#c92a2a" stroke-width="1" fill="none"></path></g><g transform="translate(326.2716574677909 626.2459860600543) rotate(0 -54.35414465606675 1.500679916829199)"><path d="M-98.98 8.22 C-103.89 2.12, -102.76 -0.49, -109.4 -10.34 M-100.9 7.15 C-102.46 3.84, -103.96 -0.91, -108.77 -11.16" stroke="#c92a2a" stroke-width="1" fill="none"></path></g></g><g stroke-linecap="round"><g transform="translate(460.0216574677909 629.3709860600543) rotate(0 -129.7723952809023 7.229174620658171)"><path d="M0.36 -1.02 C-37.01 2.61, -181.15 22.19, -224.48 21.23 C-267.82 20.27, -253.45 -2.16, -259.65 -6.77 M-0.91 1.05 C-38.32 4.39, -181.67 20.5, -224.83 19.43 C-268 18.35, -253.71 -1.31, -259.9 -5.4" stroke="#c92a2a" stroke-width="1" fill="none"></path></g><g transform="translate(460.0216574677909 629.3709860600543) rotate(0 -129.7723952809023 7.229174620658171)"><path d="M-248.17 14.24 C-249.12 9.06, -253.7 0.73, -259.19 -6.41 M-246.62 13.07 C-250.73 6.35, -256.86 -1.2, -259.76 -4.89" stroke="#c92a2a" stroke-width="1" fill="none"></path></g><g transform="translate(460.0216574677909 629.3709860600543) rotate(0 -129.7723952809023 7.229174620658171)"><path d="M-262.72 18.73 C-259.58 12.25, -260.11 2.67, -259.19 -6.41 M-261.17 17.56 C-260.07 9.29, -260.99 0.12, -259.76 -4.89" stroke="#c92a2a" stroke-width="1" fill="none"></path></g></g><g stroke-linecap="round"><g transform="translate(610.6466574677909 631.8709860600543) rotate(0 -223.71731935818798 17.08011269622017)"><path d="M-0.08 -1.06 C-69.09 5.95, -343.13 43.4, -413.76 42.49 C-484.4 41.58, -422.2 1.95, -423.89 -6.51 M-1.58 1 C-70.22 7.62, -340.91 42.24, -411.38 40.69 C-481.85 39.13, -422.4 -0.29, -424.4 -8.33" stroke="#c92a2a" stroke-width="1" fill="none"></path></g><g transform="translate(610.6466574677909 631.8709860600543) rotate(0 -223.71731935818798 17.08011269622017)"><path d="M-432.64 15.09 C-427.85 9.05, -425.12 1.17, -425.63 -9.3 M-431.36 16.39 C-429.77 10.45, -428.29 5.34, -424.68 -7.61" stroke="#c92a2a" stroke-width="1" fill="none"></path></g><g transform="translate(610.6466574677909 631.8709860600543) rotate(0 -223.71731935818798 17.08011269622017)"><path d="M-446.86 5.2 C-437.43 2.37, -430.1 -2.31, -425.63 -9.3 M-445.57 6.5 C-440.64 2.8, -435.84 0.01, -424.68 -7.61" stroke="#c92a2a" stroke-width="1" fill="none"></path></g></g><g stroke-linecap="round"><g transform="translate(577.991776983846 213.5686291364343) rotate(0 99.49687859863036 0.6108009294931662)"><path d="M-0.6 0.74 C32.67 1.14, 166.06 1.59, 199.59 1.56 M1.29 0.08 C34.36 0.2, 165.31 -0.55, 198.46 -0.29" stroke="#c92a2a" stroke-width="1" fill="none"></path></g><g transform="translate(577.991776983846 213.5686291364343) rotate(0 99.49687859863036 0.6108009294931662)"><path d="M171.5 9.39 C179.71 8.1, 186.57 2.23, 200.27 -0.04 M169.98 9.26 C178.73 6.87, 186.18 3.53, 198.78 -0.84" stroke="#c92a2a" stroke-width="1" fill="none"></path></g><g transform="translate(577.991776983846 213.5686291364343) rotate(0 99.49687859863036 0.6108009294931662)"><path d="M171.5 -11.13 C179.57 -6.22, 186.42 -5.89, 200.27 -0.04 M169.98 -11.26 C178.66 -7.76, 186.11 -5.2, 198.78 -0.84" stroke="#c92a2a" stroke-width="1" fill="none"></path></g></g><g stroke-linecap="round"><g transform="translate(579.866776983846 257.3186291364343) rotate(0 99.47728114291556 0.17112345617556457)"><path d="M0.02 0.33 C33.58 0.39, 167.04 1.21, 200.38 1.29 M-1.43 -0.55 C32.1 -0.95, 166.19 -1.13, 199.67 -0.71" stroke="#2b8a3e" stroke-width="1" fill="none"></path></g><g transform="translate(579.866776983846 257.3186291364343) rotate(0 99.47728114291556 0.17112345617556457)"><path d="M171.98 10.18 C177.95 7.49, 183.31 3.5, 200.4 -0.91 M172.24 9.51 C180.74 6.9, 189.73 3.73, 200.57 -1.41" stroke="#2b8a3e" stroke-width="1" fill="none"></path></g><g transform="translate(579.866776983846 257.3186291364343) rotate(0 99.47728114291556 0.17112345617556457)"><path d="M172.07 -10.34 C178.18 -8.53, 183.52 -8.02, 200.4 -0.91 M172.33 -11.01 C180.94 -7.05, 189.9 -3.66, 200.57 -1.41" stroke="#2b8a3e" stroke-width="1" fill="none"></path></g></g><g transform="translate(601.741776983846 190.1936291364343) rotate(0 79 12.5)"><text x="0" y="18" font-family="Virgil, Segoe UI Emoji" font-size="20px" fill="#c92a2a" text-anchor="start" style="white-space: pre;" direction="ltr">Write connection</text></g><g transform="translate(603.616776983846 233.9436291364343) rotate(0 78.5 12.5)"><text x="0" y="18" font-family="Virgil, Segoe UI Emoji" font-size="20px" fill="#2b8a3e" text-anchor="start" style="white-space: pre;" direction="ltr">Read connection</text></g><g stroke-linecap="round"><g transform="translate(338.2493633133381 454.57421113295845) rotate(0 -61.45535627272909 6.745717992917662)"><path d="M-0.93 0.71 C-10.96 3.02, -40.08 13.43, -60.39 13.45 C-80.7 13.47, -112.54 2.8, -122.78 0.83 M0.78 0.04 C-9.34 2.06, -40.36 11.51, -61.11 11.83 C-81.85 12.14, -113.67 3.41, -123.69 1.92" stroke="#c92a2a" stroke-width="1" fill="none"></path></g><g transform="translate(338.2493633133381 454.57421113295845) rotate(0 -61.45535627272909 6.745717992917662)"><path d="M-92.83 -1.77 C-100.74 -1.96, -111.32 0.86, -123.1 0.53 M-93.25 -2.11 C-101.31 -0.51, -110.89 -0.53, -122.95 2.06" stroke="#c92a2a" stroke-width="1" fill="none"></path></g><g transform="translate(338.2493633133381 454.57421113295845) rotate(0 -61.45535627272909 6.745717992917662)"><path d="M-96.93 18.34 C-103.63 12.56, -113.06 9.76, -123.1 0.53 M-97.35 18 C-104.42 14.01, -112.85 8.36, -122.95 2.06" stroke="#c92a2a" stroke-width="1" fill="none"></path></g></g><g stroke-linecap="round"><g transform="translate(459.91602998000474 458.32421113295845) rotate(0 -123.50463811080749 12.854960017587644)"><path d="M0.33 -0.59 C-34.64 3.79, -167.85 25.94, -209.01 25.81 C-250.16 25.67, -240.15 3.04, -246.6 -1.4 M-0.96 1.71 C-36.14 6.31, -168.81 27.38, -209.88 27.11 C-250.94 26.83, -240.97 5.07, -247.33 0.06" stroke="#c92a2a" stroke-width="1" fill="none"></path></g><g transform="translate(459.91602998000474 458.32421113295845) rotate(0 -123.50463811080749 12.854960017587644)"><path d="M-232.86 17.85 C-238.17 11.35, -242.61 3.05, -245.96 0.77 M-230.92 17.64 C-236.08 13.69, -240.07 8.02, -248.19 -0.44" stroke="#c92a2a" stroke-width="1" fill="none"></path></g><g transform="translate(459.91602998000474 458.32421113295845) rotate(0 -123.50463811080749 12.854960017587644)"><path d="M-247.74 23.69 C-247.61 15.03, -246.63 4.6, -245.96 0.77 M-245.81 23.48 C-246.88 17.99, -246.8 10.73, -248.19 -0.44" stroke="#c92a2a" stroke-width="1" fill="none"></path></g></g><g stroke-linecap="round"><g transform="translate(574.9160299800046 454.57421113295845) rotate(0 -187.8755254872143 19.654063756028222)"><path d="M0.49 0.22 C-56.07 6.72, -276.64 39.05, -338.61 39.01 C-400.58 38.96, -366.07 6.45, -371.34 -0.06 M-0.72 -0.71 C-56.98 5.91, -274.57 39.77, -336.48 40.02 C-398.38 40.27, -366.66 7.36, -372.15 0.8" stroke="#c92a2a" stroke-width="1" fill="none"></path></g><g transform="translate(574.9160299800046 454.57421113295845) rotate(0 -187.8755254872143 19.654063756028222)"><path d="M-366.34 24.22 C-370.33 16.82, -372.12 9.58, -373.6 2.03 M-366.1 26.35 C-368.22 19.49, -368.59 13.2, -371.19 1.45" stroke="#c92a2a" stroke-width="1" fill="none"></path></g><g transform="translate(574.9160299800046 454.57421113295845) rotate(0 -187.8755254872143 19.654063756028222)"><path d="M-383.86 21.81 C-381.52 15.21, -376.99 8.84, -373.6 2.03 M-383.62 23.93 C-381.52 17.66, -377.71 11.94, -371.19 1.45" stroke="#c92a2a" stroke-width="1" fill="none"></path></g></g><g stroke-linecap="round"><g transform="translate(164.76853997530623 411.6426111682604) rotate(0 -38.37781303729702 -38.73312336674741)"><path d="M0.42 0.72 C-12.35 -11.96, -63.72 -63.4, -76.38 -76.27 M-0.81 0.05 C-13.74 -12.99, -64.69 -65.66, -77.18 -78.18" stroke="#c92a2a" stroke-width="1" fill="none"></path></g><g transform="translate(164.76853997530623 411.6426111682604) rotate(0 -38.37781303729702 -38.73312336674741)"><path d="M-48.92 -64.75 C-58.12 -67.42, -67.21 -75.1, -75.68 -77.86 M-49.67 -64.93 C-60.66 -70.45, -71.04 -75.31, -77.05 -78.81" stroke="#c92a2a" stroke-width="1" fill="none"></path></g><g transform="translate(164.76853997530623 411.6426111682604) rotate(0 -38.37781303729702 -38.73312336674741)"><path d="M-63.58 -50.39 C-68.06 -57.72, -72.44 -70.01, -75.68 -77.86 M-64.32 -50.56 C-69.77 -61.44, -74.55 -71.79, -77.05 -78.81" stroke="#c92a2a" stroke-width="1" fill="none"></path></g></g><g stroke-linecap="round"><g transform="translate(71.39197300677392 340.47180647994753) rotate(0 47.598886093869794 46.19126767273838)"><path d="M0.38 1.01 C16.3 16.29, 80.3 75.75, 96.07 90.63 M-0.88 0.5 C14.85 16.02, 78.83 76.78, 95.23 91.89" stroke="#087f5b" stroke-width="1" fill="none"></path></g><g transform="translate(71.39197300677392 340.47180647994753) rotate(0 47.598886093869794 46.19126767273838)"><path d="M69.33 80.41 C76.2 82.7, 85.17 90.01, 96.18 93.54 M68.64 79.3 C76.41 83.44, 86.61 87.7, 94.51 91.45" stroke="#087f5b" stroke-width="1" fill="none"></path></g><g transform="translate(71.39197300677392 340.47180647994753) rotate(0 47.598886093869794 46.19126767273838)"><path d="M83.38 65.45 C85.25 72.96, 89.37 85.45, 96.18 93.54 M82.68 64.34 C85.81 73.6, 91.32 82.85, 94.51 91.45" stroke="#087f5b" stroke-width="1" fill="none"></path></g></g><g stroke-linecap="round"><g transform="translate(188.1018733086396 518.3092778349269) rotate(0 -0.2169063768131423 -27.213246067329294)"><path d="M0.2 -0.76 C0.17 -10.18, 0.56 -46.72, 0.77 -55.88 M-1.15 1.45 C-1.44 -7.89, -0.57 -45.43, -0.21 -54.8" stroke="#087f5b" stroke-width="1" fill="none"></path></g><g transform="translate(188.1018733086396 518.3092778349269) rotate(0 -0.2169063768131423 -27.213246067329294)"><path d="M7.18 -28.8 C3.54 -37.67, 0.52 -50.48, -1.38 -53.4 M8.81 -29.66 C6.38 -35.42, 4.6 -42.31, -0.92 -54.71" stroke="#087f5b" stroke-width="1" fill="none"></path></g><g transform="translate(188.1018733086396 518.3092778349269) rotate(0 -0.2169063768131423 -27.213246067329294)"><path d="M-11.62 -29.34 C-8.06 -38.03, -3.89 -50.64, -1.38 -53.4 M-9.99 -30.19 C-7.72 -35.95, -4.8 -42.71, -0.92 -54.71" stroke="#087f5b" stroke-width="1" fill="none"></path></g></g><g stroke-linecap="round"><g transform="translate(320.6018733086396 528.3092778349269) rotate(0 0.24431053457470853 -33.258842402511846)"><path d="M-0.59 0.92 C-0.41 -10.13, 0.01 -54.32, 0.38 -65.5 M1.3 0.36 C1.34 -11.14, -0.8 -56.55, -0.81 -67.44" stroke="#087f5b" stroke-width="1" fill="none"></path></g><g transform="translate(320.6018733086396 528.3092778349269) rotate(0 0.24431053457470853 -33.258842402511846)"><path d="M11.75 -40.3 C7.92 -45.07, 4.22 -55.02, 0.18 -68.04 M10.62 -39.33 C5.51 -49.63, 0.85 -60.49, -0.98 -67.08" stroke="#087f5b" stroke-width="1" fill="none"></path></g><g transform="translate(320.6018733086396 528.3092778349269) rotate(0 0.24431053457470853 -33.258842402511846)"><path d="M-8.76 -39.74 C-7.64 -44.55, -6.39 -54.63, 0.18 -68.04 M-9.89 -38.77 C-7.4 -49.23, -4.46 -60.29, -0.98 -67.08" stroke="#087f5b" stroke-width="1" fill="none"></path></g></g><g stroke-linecap="round"><g transform="translate(451.43520664197297 525.8092778349269) rotate(0 0.011722234518629193 -29.80055447543657)"><path d="M-1 -0.29 C-1.31 -10.06, -1.13 -49.8, -1.06 -59.31 M0.67 -1.49 C0.66 -11.09, 1.48 -48.68, 1.1 -58.29" stroke="#087f5b" stroke-width="1" fill="none"></path></g><g transform="translate(451.43520664197297 525.8092778349269) rotate(0 0.011722234518629193 -29.80055447543657)"><path d="M10.73 -32.69 C6.06 -41.85, 5.67 -50.88, 1.99 -56.89 M11.48 -31.13 C9.4 -36.45, 7.24 -42.69, 0.27 -57.68" stroke="#087f5b" stroke-width="1" fill="none"></path></g><g transform="translate(451.43520664197297 525.8092778349269) rotate(0 0.011722234518629193 -29.80055447543657)"><path d="M-9.22 -32.59 C-6.65 -41.62, 0.21 -50.69, 1.99 -56.89 M-8.47 -31.03 C-5.99 -36.54, -3.6 -42.81, 0.27 -57.68" stroke="#087f5b" stroke-width="1" fill="none"></path></g></g><g stroke-linecap="round"><g transform="translate(589.7685399753063 532.4759445015936) rotate(0 -0.8814471113184936 -35.21684378907082)"><path d="M0.21 0.67 C-0.17 -11.03, -1.7 -59.36, -1.97 -71.11 M-1.14 -0.02 C-1.19 -11.54, 0.37 -58.75, 0.14 -70.15" stroke="#087f5b" stroke-width="1" fill="none"></path></g><g transform="translate(589.7685399753063 532.4759445015936) rotate(0 -0.8814471113184936 -35.21684378907082)"><path d="M11.23 -43.75 C5.24 -52, 4.16 -60.11, 0.95 -71.72 M9.23 -41.1 C7.56 -51.81, 3.04 -62.52, -0.05 -70.03" stroke="#087f5b" stroke-width="1" fill="none"></path></g><g transform="translate(589.7685399753063 532.4759445015936) rotate(0 -0.8814471113184936 -35.21684378907082)"><path d="M-9.29 -43.96 C-8.62 -52.18, -3.05 -60.22, 0.95 -71.72 M-11.29 -41.31 C-5.68 -51.99, -2.92 -62.63, -0.05 -70.03" stroke="#087f5b" stroke-width="1" fill="none"></path></g></g><g stroke-linecap="round"><g transform="translate(618.1018733086398 459.97594450159363) rotate(0 -0.761180134078927 36.317976820305944)"><path d="M0.37 0.08 C0.35 12.37, -0.81 61.52, -1.19 73.56 M-0.9 -0.92 C-0.94 11.07, -1.57 59.58, -1.89 71.99" stroke="#c92a2a" stroke-width="1" fill="none"></path></g><g transform="translate(618.1018733086398 459.97594450159363) rotate(0 -0.761180134078927 36.317976820305944)"><path d="M-11.5 44.41 C-7.85 49.15, -7.86 55.38, -0.23 72.1 M-11.94 42.63 C-8.17 51.91, -4.53 61.77, -1.83 71.19" stroke="#c92a2a" stroke-width="1" fill="none"></path></g><g transform="translate(618.1018733086398 459.97594450159363) rotate(0 -0.761180134078927 36.317976820305944)"><path d="M9.02 44.79 C8.33 49.51, 3.99 55.66, -0.23 72.1 M8.58 43.01 C5.83 52.36, 2.95 62.1, -1.83 71.19" stroke="#c92a2a" stroke-width="1" fill="none"></path></g></g><g stroke-linecap="round"><g transform="translate(477.26853997530634 468.3092778349269) rotate(0 -2.550021651138877 33.004877875993714)"><path d="M-0.16 -0.93 C-1.13 10.19, -4.15 55.79, -4.94 66.94 M-1.7 1.19 C-2.37 11.99, -2.52 54.37, -2.64 65.4" stroke="#c92a2a" stroke-width="1" fill="none"></path></g><g transform="translate(477.26853997530634 468.3092778349269) rotate(0 -2.550021651138877 33.004877875993714)"><path d="M-14.24 35.85 C-7.02 46.53, -4.84 60.1, -2.45 64.7 M-12.42 37.69 C-10.02 44.65, -8.08 49.39, -2.24 65.25" stroke="#c92a2a" stroke-width="1" fill="none"></path></g><g transform="translate(477.26853997530634 468.3092778349269) rotate(0 -2.550021651138877 33.004877875993714)"><path d="M6.28 36 C5.8 46.6, 0.27 60.12, -2.45 64.7 M8.1 37.85 C5.73 44.85, 2.9 49.55, -2.24 65.25" stroke="#c92a2a" stroke-width="1" fill="none"></path></g></g><g stroke-linecap="round"><g transform="translate(348.1018733086396 465.8092778349269) rotate(0 -0.5865612856395046 34.17387169953133)"><path d="M0.01 0.24 C0.09 11.38, 0.36 56.56, 0.25 67.78 M-1.45 -0.68 C-1.41 10.54, -0.15 57.5, -0.13 69.03" stroke="#c92a2a" stroke-width="1" fill="none"></path></g><g transform="translate(348.1018733086396 465.8092778349269) rotate(0 -0.5865612856395046 34.17387169953133)"><path d="M-10.44 42.8 C-8.54 49.14, -5.91 58.21, -0.17 67.57 M-11.49 41.22 C-7.68 50.26, -4.33 59.23, -0.47 69.77" stroke="#c92a2a" stroke-width="1" fill="none"></path></g><g transform="translate(348.1018733086396 465.8092778349269) rotate(0 -0.5865612856395046 34.17387169953133)"><path d="M10.08 42.48 C6.22 48.91, 3.09 58.07, -0.17 67.57 M9.03 40.9 C5.88 50.24, 2.26 59.32, -0.47 69.77" stroke="#c92a2a" stroke-width="1" fill="none"></path></g></g><g stroke-linecap="round"><g transform="translate(226.43520664197297 469.1426111682604) rotate(0 -0.20386206464399947 33.22838790325284)"><path d="M0.39 -0.95 C0.29 10.03, 0.54 54.69, 0.57 66.14 M-0.86 1.17 C-1.24 12.28, -0.6 56.59, -0.51 67.41" stroke="#c92a2a" stroke-width="1" fill="none"></path></g><g transform="translate(226.43520664197297 469.1426111682604) rotate(0 -0.20386206464399947 33.22838790325284)"><path d="M-12.66 38.89 C-7.7 49.98, -0.76 62.34, 0.52 66.44 M-10.17 39.6 C-8.73 46.81, -5.17 55.52, -0.13 67.6" stroke="#c92a2a" stroke-width="1" fill="none"></path></g><g transform="translate(226.43520664197297 469.1426111682604) rotate(0 -0.20386206464399947 33.22838790325284)"><path d="M7.86 38.67 C4.69 49.91, 3.51 62.36, 0.52 66.44 M10.35 39.37 C6.02 46.54, 3.81 55.32, -0.13 67.6" stroke="#c92a2a" stroke-width="1" fill="none"></path></g></g><g transform="translate(670.2678595088134 410.010571084852) rotate(0 5.5 12.5)"><text x="0" y="18" font-family="Virgil, Segoe UI Emoji" font-size="20px" fill="#000000" text-anchor="start" style="white-space: pre;" direction="ltr"></text></g></svg>